<svg xmlns="http://www.w3.org/2000/svg" viewBox="0 0 80 80">
  <style>
    path { fill: #59418d; }
    @media (prefers-color-scheme: dark) {
      path { fill: #fff; }
    }
  </style>
  <path d="M48.075.022c-10.786.35-20.79 4.877-28.17 12.75C4.671 29.028 5.5 54.645 21.753 69.88A40.156 40.156 0 0 0 41.463 80l2.144-5.36a34.53 34.53 0 0 1-17.98-8.894C11.653 52.647 10.94 30.622 24.038 16.647c6.346-6.77 14.947-10.663 24.22-10.963a35.02 35.02 0 0 1 1.153-.019 34.432 34.432 0 0 1 19.402 5.944l2.147-5.37C64.55 2.173 57.135 0 49.415 0c-.446 0-.892.007-1.34.022Zm4.09 20.499H46.543l-.068.17L32.16 56.474l-.148.37h6.359l.067-.172 3.512-9.03h15.435l3.556 9.032.067.17h6.562l-.147-.37L58.18 33.37l-.068-.17H51.754l.143.367 3.278 8.426h-10.97l8.211-21.104.143-.367h-.394Z"/>
</svg>