<svg width="1707" height="580" viewBox="0 0 1707 580" fill="none" xmlns="http://www.w3.org/2000/svg">
    <g opacity="0.8">
        <g opacity="0.4" clip-path="url(#clip0_1_31)">
            <path
                d="M412.536 132.153C412.532 132.153 412.532 132.157 412.532 132.157C412.505 133.189 412.3 135.732 411.043 136.989C409.781 138.249 407.197 138.484 406.144 138.526C406.144 138.526 406.136 138.53 406.136 138.534V138.542V138.549C406.136 138.553 406.14 138.557 406.14 138.557C407.197 138.599 409.785 138.834 411.043 140.094C412.3 141.351 412.501 143.894 412.532 144.927C412.532 144.93 412.536 144.93 412.536 144.93H412.54H412.544H412.547L412.551 144.927C412.578 143.89 412.783 141.351 414.04 140.094C415.302 138.834 417.886 138.599 418.939 138.557C418.939 138.557 418.947 138.553 418.947 138.549V138.542V138.534C418.947 138.53 418.943 138.526 418.943 138.526C417.886 138.484 415.302 138.249 414.04 136.989C412.783 135.732 412.578 133.189 412.551 132.157C412.551 132.153 412.547 132.153 412.547 132.153V132.149H412.544L412.536 132.153C412.536 132.153 412.536 132.149 412.536 132.153Z"
                fill="#FF9A09" />
            <path
                d="M40.3136 34.0505C40.3136 34.0467 40.3097 34.0467 40.3097 34.0467C39.4264 34.0235 37.2507 33.8501 36.1782 32.775C35.102 31.7 34.9014 29.492 34.8628 28.5941C34.8628 28.5903 34.859 28.5864 34.8551 28.5864H34.8474H34.8397C34.8358 28.5864 34.832 28.5903 34.832 28.5941C34.7934 29.492 34.5928 31.7 33.5165 32.775C32.4403 33.8463 30.2684 34.0197 29.385 34.0467L29.3812 34.0505V34.0544V34.0582L29.385 34.0621C30.2684 34.0852 32.4441 34.2586 33.5165 35.3337C34.5928 36.4088 34.7934 38.6168 34.832 39.5146C34.832 39.5185 34.8358 39.5223 34.8397 39.5223H34.8474H34.8551C34.859 39.5223 34.8628 39.5185 34.8628 39.5146C34.8975 38.6168 35.102 36.4088 36.1782 35.3337C37.2507 34.2586 39.4264 34.089 40.3097 34.0621C40.3136 34.0621 40.3136 34.0582 40.3136 34.0582H40.3175V34.0544L40.3136 34.0505C40.3175 34.0544 40.3136 34.0544 40.3136 34.0505Z"
                fill="#079DAD" />
            <path
                d="M398.66 7.52273C398.664 7.51887 398.664 7.52273 398.66 7.52273C398.182 7.01408 397.067 5.70779 397.067 4.51324C397.067 3.31484 398.186 1.97772 398.664 1.45752C398.668 1.45366 398.668 1.45368 398.664 1.44983L398.66 1.44597L398.657 1.44211C398.657 1.44211 398.653 1.43826 398.649 1.44211C398.128 1.91993 396.786 3.03742 395.59 3.03742C394.394 3.03742 393.09 1.92379 392.585 1.44597H392.581H392.577V1.44983C393.055 1.95462 394.17 3.26091 394.17 4.45545C394.17 5.65385 393.051 6.99097 392.573 7.51118C392.569 7.51503 392.573 7.51504 392.573 7.51889L392.577 7.52273L392.581 7.52658C392.581 7.52658 392.585 7.53044 392.589 7.52658C393.109 7.04877 394.448 5.93128 395.648 5.93128C396.843 5.93128 398.147 7.04493 398.653 7.51889H398.657L398.66 7.52273C398.66 7.52658 398.66 7.52658 398.66 7.52273Z"
                fill="#7D766A" />
            <path
                d="M445.337 21.4615C445.337 22.6253 444.392 23.5693 443.227 23.5693C442.062 23.5693 441.117 22.6253 441.117 21.4615C441.117 20.2978 442.062 19.3537 443.227 19.3537C444.392 19.3537 445.337 20.2978 445.337 21.4615Z"
                fill="#F4362C" />
            <path
                d="M344.178 26.4363C344.178 27.9661 342.936 29.203 341.408 29.203C339.877 29.203 338.639 27.9622 338.639 26.4363C338.639 24.9065 339.877 23.6695 341.408 23.6695C342.936 23.6695 344.178 24.9103 344.178 26.4363Z"
                fill="#7D766A" />
            <path
                d="M209.522 176.702C209.522 178.336 208.195 179.662 206.559 179.662C204.923 179.662 203.596 178.336 203.596 176.702C203.596 175.069 204.923 173.743 206.559 173.743C208.195 173.743 209.522 175.069 209.522 176.702Z"
                fill="#7D766A" />
            <path
                d="M373.99 181.253C373.99 182.132 373.276 182.845 372.396 182.845C371.517 182.845 370.803 182.132 370.803 181.253C370.803 180.375 371.517 179.662 372.396 179.662C373.276 179.662 373.99 180.375 373.99 181.253Z"
                fill="#F4362C" />
            <path
                d="M251.817 -2.43588C251.813 -2.43588 251.813 -2.43203 251.813 -2.43203C251.79 -1.62668 251.632 0.353962 250.652 1.33272C249.669 2.31533 247.655 2.49644 246.833 2.53112C246.833 2.53112 246.826 2.53498 246.826 2.53883V2.54654V2.55424C246.826 2.55809 246.829 2.56195 246.829 2.56195C247.655 2.59663 249.669 2.77774 250.652 3.76035C251.632 4.73911 251.79 6.71974 251.813 7.52509L251.817 7.52895H251.821H251.825C251.825 7.52895 251.829 7.52895 251.829 7.52509C251.852 6.71974 252.01 4.73911 252.99 3.76035C253.974 2.77774 255.987 2.59663 256.809 2.56195C256.809 2.56195 256.817 2.55809 256.817 2.55424V2.54654V2.53883C256.817 2.53498 256.813 2.53112 256.813 2.53112C255.987 2.49644 253.974 2.31533 252.99 1.33272C252.01 0.353962 251.852 -1.62668 251.829 -2.43203C251.829 -2.43588 251.829 -2.43588 251.825 -2.43588H251.821H251.817C251.821 -2.43588 251.817 -2.43588 251.817 -2.43588Z"
                fill="#FF9A09" />
            <path
                d="M453.6 199.536C453.596 199.536 453.596 199.536 453.592 199.536C452.906 200.183 451.135 201.694 449.515 201.694C447.891 201.694 446.07 200.179 445.364 199.532C445.364 199.532 445.356 199.528 445.352 199.532L445.349 199.54L445.341 199.547C445.337 199.551 445.337 199.555 445.337 199.555C445.989 200.264 447.505 202.079 447.505 203.705C447.505 205.324 445.997 207.092 445.345 207.778V207.782L445.349 207.786H445.352H445.356C445.356 207.786 445.36 207.786 445.364 207.786C446.051 207.139 447.821 205.628 449.442 205.628C451.066 205.628 452.886 207.142 453.592 207.794C453.592 207.794 453.6 207.798 453.604 207.794L453.608 207.786L453.615 207.778C453.619 207.774 453.619 207.771 453.619 207.771C452.967 207.062 451.451 205.247 451.451 203.621C451.451 202.002 452.96 200.233 453.608 199.547C453.608 199.547 453.608 199.544 453.608 199.54V199.536L453.604 199.532L453.6 199.536C453.604 199.536 453.604 199.536 453.6 199.536Z"
                fill="#079DAD" />
            <path
                d="M355.002 199.53C355.002 200.675 354.072 201.607 352.927 201.607C351.777 201.607 350.848 200.679 350.848 199.53C350.848 198.386 351.777 197.453 352.927 197.453C354.069 197.453 355.002 198.382 355.002 199.53Z"
                fill="#00AD6B" />
            <path
                d="M59.11 152.577C59.1061 152.577 59.1061 152.58 59.1061 152.58C59.083 153.44 58.9132 155.547 57.8717 156.588C56.8263 157.632 54.6814 157.829 53.8058 157.863C53.8058 157.863 53.798 157.867 53.798 157.871V157.879V157.886C53.798 157.89 53.8019 157.894 53.8019 157.894C54.6776 157.929 56.8263 158.125 57.8717 159.17C58.9171 160.214 59.083 162.322 59.1061 163.181L59.11 163.185H59.1138H59.1177C59.1177 163.185 59.1215 163.185 59.1215 163.181C59.1447 162.322 59.3144 160.214 60.356 159.17C61.4014 158.125 63.5462 157.929 64.4219 157.894C64.4219 157.894 64.4296 157.89 64.4296 157.886V157.879V157.871C64.4296 157.867 64.4257 157.863 64.4257 157.863C63.5501 157.829 61.4052 157.632 60.356 156.588C59.3105 155.544 59.1447 153.436 59.1215 152.58C59.1215 152.577 59.1215 152.577 59.1177 152.577H59.1138H59.11Z"
                fill="#F4362C" />
            <path
                d="M242.597 144.716C242.03 145.282 241.108 145.282 240.537 144.716C239.97 144.149 239.97 143.228 240.537 142.658C241.104 142.092 242.026 142.092 242.597 142.658C243.164 143.224 243.164 144.145 242.597 144.716Z"
                fill="#00AD6B" />
            <path
                d="M158.264 191C157.697 191.566 156.775 191.566 156.204 191C155.637 190.433 155.637 189.512 156.204 188.942C156.771 188.375 157.693 188.375 158.264 188.942C158.835 189.512 158.835 190.433 158.264 191Z"
                fill="#00AD6B" />
            <path
                d="M140.485 13.1896C139.918 13.7561 138.996 13.7561 138.425 13.1896C137.858 12.6232 137.858 11.7022 138.425 11.1319C138.992 10.5655 139.914 10.5655 140.485 11.1319C141.052 11.6984 141.052 12.6193 140.485 13.1896Z"
                fill="#00AD6B" />
            <path
                d="M53.9564 57.9414C53.3893 58.5079 52.4674 58.5079 51.8964 57.9414C51.3294 57.375 51.3294 56.454 51.8964 55.8837C52.4635 55.3173 53.3855 55.3173 53.9564 55.8837C54.5235 56.454 54.5235 57.375 53.9564 57.9414Z"
                fill="#F4362C" />
            <path
                d="M129.7 150.615C129.694 150.615 129.694 150.615 129.688 150.615C128.613 151.631 125.839 153.997 123.301 153.997C120.75 153.997 117.906 151.625 116.796 150.604C116.796 150.604 116.784 150.598 116.778 150.604L116.772 150.615L116.76 150.627C116.754 150.633 116.754 150.639 116.754 150.639C117.777 151.748 120.151 154.595 120.151 157.143C120.151 159.679 117.783 162.455 116.766 163.529C116.766 163.529 116.766 163.535 116.766 163.541L116.772 163.547H116.778H116.784C116.784 163.547 116.79 163.547 116.796 163.547C117.871 162.531 120.645 160.166 123.189 160.166C125.733 160.166 128.583 162.537 129.694 163.559C129.694 163.559 129.706 163.564 129.712 163.559L129.723 163.547L129.735 163.535C129.741 163.529 129.741 163.523 129.741 163.523C128.719 162.414 126.345 159.567 126.345 157.02C126.345 154.478 128.713 151.707 129.729 150.633C129.729 150.633 129.729 150.627 129.729 150.621V150.615L129.723 150.61L129.7 150.615C129.706 150.615 129.7 150.615 129.7 150.615Z"
                fill="#079DAD" />
            <path
                d="M18.5396 172.779C18.5396 173.573 17.8954 174.216 17.1007 174.216C16.306 174.216 15.6618 173.573 15.6618 172.779C15.6618 171.985 16.306 171.342 17.1007 171.342C17.8954 171.342 18.5396 171.985 18.5396 172.779Z"
                fill="#00AD6B" />
            <path
                d="M303.048 155.059C302.481 155.626 301.559 155.626 300.988 155.059C300.421 154.493 300.421 153.572 300.988 153.001C301.555 152.435 302.477 152.435 303.048 153.001C303.619 153.572 303.619 154.493 303.048 155.059Z"
                fill="#FF9A09" />
            <path
                d="M433.508 112.16H433.504C433.08 112.561 431.984 113.493 430.981 113.493C429.974 113.493 428.852 112.557 428.412 112.156C428.412 112.156 428.408 112.156 428.404 112.156L428.4 112.16L428.396 112.164V112.168C428.801 112.607 429.739 113.729 429.739 114.734C429.739 115.736 428.805 116.83 428.404 117.254V117.258H428.408C428.832 116.857 429.928 115.925 430.931 115.925C431.938 115.925 433.06 116.861 433.5 117.262C433.5 117.262 433.504 117.262 433.508 117.262L433.512 117.258L433.515 117.254V117.251C433.11 116.811 432.173 115.69 432.173 114.684C432.173 113.682 433.107 112.588 433.508 112.164V112.16Z"
                fill="#079DAD" />
            <path
                d="M72.9405 127.047H72.9366C72.5123 127.448 71.4167 128.38 70.4138 128.38C69.4069 128.38 68.2844 127.444 67.8446 127.043C67.8446 127.043 67.8407 127.043 67.8369 127.043L67.833 127.047L67.8292 127.051V127.055C68.2342 127.494 69.1716 128.615 69.1716 129.621C69.1716 130.623 68.2381 131.717 67.8369 132.141V132.145H67.8407C68.2651 131.744 69.3606 130.812 70.3636 130.812C71.3704 130.812 72.493 131.748 72.9328 132.149C72.9328 132.149 72.9366 132.149 72.9405 132.149L72.9444 132.145L72.9482 132.141V132.137C72.5432 131.698 71.6058 130.577 71.6058 129.571C71.6058 128.569 72.5393 127.475 72.9405 127.051V127.047Z"
                fill="#FF9A09" />
            <path
                d="M29.9511 68.9548C29.9472 68.9509 29.9432 68.9548 29.9432 68.9548C29.1291 69.7207 27.0362 71.5103 25.1138 71.51C23.1914 71.5096 21.0344 69.7194 20.1962 68.9453C20.1962 68.9453 20.1843 68.9413 20.1803 68.9453L20.1724 68.9533L20.1644 68.9612C20.1605 68.9652 20.1644 68.9691 20.1644 68.9691C20.9391 69.8067 22.7307 71.962 22.7311 73.8829C22.7314 75.8038 20.9444 77.899 20.174 78.7085L20.1739 78.7165L20.1779 78.7205L20.1819 78.7244C20.1819 78.7244 20.1859 78.7284 20.1898 78.7244C21.004 77.9586 23.0968 76.169 25.0192 76.1693C26.9416 76.1696 29.0986 77.9599 29.9368 78.7339C29.9368 78.7339 29.9487 78.7379 29.9527 78.7339L29.9606 78.726L29.9686 78.7181C29.9726 78.7141 29.9726 78.7062 29.9726 78.7062C29.1979 77.8686 27.4023 75.7172 27.4059 73.7924C27.4056 71.8715 29.1926 69.7762 29.963 68.9667C29.967 68.9628 29.967 68.9628 29.963 68.9588L29.9591 68.9548L29.9511 68.9548C29.9591 68.9548 29.9591 68.9548 29.9511 68.9548Z"
                fill="#7D766A" />
        </g>
        <g opacity="0.4" clip-path="url(#clip1_1_31)">
            <path
                d="M913.536 132.153C913.532 132.153 913.532 132.157 913.532 132.157C913.505 133.189 913.3 135.732 912.043 136.989C910.781 138.249 908.197 138.484 907.144 138.526C907.144 138.526 907.136 138.53 907.136 138.534V138.542V138.549C907.136 138.553 907.14 138.557 907.14 138.557C908.197 138.599 910.785 138.834 912.043 140.094C913.3 141.351 913.501 143.894 913.532 144.927C913.532 144.93 913.536 144.93 913.536 144.93H913.54H913.544H913.547L913.551 144.927C913.578 143.89 913.783 141.351 915.04 140.094C916.302 138.834 918.886 138.599 919.939 138.557C919.939 138.557 919.947 138.553 919.947 138.549V138.542V138.534C919.947 138.53 919.943 138.526 919.943 138.526C918.886 138.484 916.302 138.249 915.04 136.989C913.783 135.732 913.578 133.189 913.551 132.157C913.551 132.153 913.547 132.153 913.547 132.153V132.149H913.544L913.536 132.153C913.536 132.153 913.536 132.149 913.536 132.153Z"
                fill="#FF9A09" />
            <path
                d="M541.314 34.0505C541.314 34.0467 541.31 34.0467 541.31 34.0467C540.426 34.0235 538.251 33.8501 537.178 32.775C536.102 31.7 535.901 29.492 535.863 28.5941C535.863 28.5903 535.859 28.5864 535.855 28.5864H535.847H535.84C535.836 28.5864 535.832 28.5903 535.832 28.5941C535.793 29.492 535.593 31.7 534.517 32.775C533.44 33.8463 531.268 34.0197 530.385 34.0467L530.381 34.0505V34.0544V34.0582L530.385 34.0621C531.268 34.0852 533.444 34.2586 534.517 35.3337C535.593 36.4088 535.793 38.6168 535.832 39.5146C535.832 39.5185 535.836 39.5223 535.84 39.5223H535.847H535.855C535.859 39.5223 535.863 39.5185 535.863 39.5146C535.898 38.6168 536.102 36.4088 537.178 35.3337C538.251 34.2586 540.426 34.089 541.31 34.0621C541.314 34.0621 541.314 34.0582 541.314 34.0582H541.317V34.0544L541.314 34.0505C541.317 34.0544 541.314 34.0544 541.314 34.0505Z"
                fill="#079DAD" />
            <path
                d="M899.66 7.52273C899.664 7.51887 899.664 7.52273 899.66 7.52273C899.182 7.01408 898.067 5.70779 898.067 4.51324C898.067 3.31484 899.186 1.97772 899.664 1.45752C899.668 1.45366 899.668 1.45368 899.664 1.44983L899.66 1.44597L899.657 1.44211C899.657 1.44211 899.653 1.43826 899.649 1.44211C899.128 1.91993 897.786 3.03742 896.59 3.03742C895.394 3.03742 894.09 1.92379 893.585 1.44597H893.581H893.577V1.44983C894.055 1.95462 895.17 3.26091 895.17 4.45545C895.17 5.65385 894.051 6.99097 893.573 7.51118C893.569 7.51503 893.573 7.51504 893.573 7.51889L893.577 7.52273L893.581 7.52658C893.581 7.52658 893.585 7.53044 893.589 7.52658C894.109 7.04877 895.448 5.93128 896.648 5.93128C897.843 5.93128 899.147 7.04493 899.653 7.51889H899.657L899.66 7.52273C899.66 7.52658 899.66 7.52658 899.66 7.52273Z"
                fill="#7D766A" />
            <path
                d="M946.337 21.4615C946.337 22.6253 945.392 23.5693 944.227 23.5693C943.062 23.5693 942.117 22.6253 942.117 21.4615C942.117 20.2978 943.062 19.3537 944.227 19.3537C945.392 19.3537 946.337 20.2978 946.337 21.4615Z"
                fill="#F4362C" />
            <path
                d="M845.178 26.4363C845.178 27.9661 843.936 29.203 842.408 29.203C840.877 29.203 839.639 27.9622 839.639 26.4363C839.639 24.9065 840.877 23.6695 842.408 23.6695C843.936 23.6695 845.178 24.9103 845.178 26.4363Z"
                fill="#7D766A" />
            <path
                d="M710.522 176.702C710.522 178.336 709.195 179.662 707.559 179.662C705.923 179.662 704.596 178.336 704.596 176.702C704.596 175.069 705.923 173.743 707.559 173.743C709.195 173.743 710.522 175.069 710.522 176.702Z"
                fill="#7D766A" />
            <path
                d="M874.99 181.253C874.99 182.132 874.276 182.845 873.396 182.845C872.517 182.845 871.803 182.132 871.803 181.253C871.803 180.375 872.517 179.662 873.396 179.662C874.276 179.662 874.99 180.375 874.99 181.253Z"
                fill="#F4362C" />
            <path
                d="M752.817 -2.43588C752.813 -2.43588 752.813 -2.43203 752.813 -2.43203C752.79 -1.62668 752.632 0.353962 751.652 1.33272C750.669 2.31533 748.655 2.49644 747.833 2.53112C747.833 2.53112 747.826 2.53498 747.826 2.53883V2.54654V2.55424C747.826 2.55809 747.829 2.56195 747.829 2.56195C748.655 2.59663 750.669 2.77774 751.652 3.76035C752.632 4.73911 752.79 6.71974 752.813 7.52509L752.817 7.52895H752.821H752.825C752.825 7.52895 752.829 7.52895 752.829 7.52509C752.852 6.71974 753.01 4.73911 753.99 3.76035C754.974 2.77774 756.987 2.59663 757.809 2.56195C757.809 2.56195 757.817 2.55809 757.817 2.55424V2.54654V2.53883C757.817 2.53498 757.813 2.53112 757.813 2.53112C756.987 2.49644 754.974 2.31533 753.99 1.33272C753.01 0.353962 752.852 -1.62668 752.829 -2.43203C752.829 -2.43588 752.829 -2.43588 752.825 -2.43588H752.821H752.817C752.821 -2.43588 752.817 -2.43588 752.817 -2.43588Z"
                fill="#FF9A09" />
            <path
                d="M954.6 199.536C954.596 199.536 954.596 199.536 954.592 199.536C953.906 200.183 952.135 201.694 950.515 201.694C948.891 201.694 947.07 200.179 946.364 199.532C946.364 199.532 946.356 199.528 946.352 199.532L946.349 199.54L946.341 199.547C946.337 199.551 946.337 199.555 946.337 199.555C946.989 200.264 948.505 202.079 948.505 203.705C948.505 205.324 946.997 207.092 946.345 207.778V207.782L946.349 207.786H946.352H946.356C946.356 207.786 946.36 207.786 946.364 207.786C947.051 207.139 948.821 205.628 950.442 205.628C952.066 205.628 953.886 207.142 954.592 207.794C954.592 207.794 954.6 207.798 954.604 207.794L954.608 207.786L954.615 207.778C954.619 207.774 954.619 207.771 954.619 207.771C953.967 207.062 952.451 205.247 952.451 203.621C952.451 202.002 953.96 200.233 954.608 199.547C954.608 199.547 954.608 199.544 954.608 199.54V199.536L954.604 199.532L954.6 199.536C954.604 199.536 954.604 199.536 954.6 199.536Z"
                fill="#079DAD" />
            <path
                d="M856.002 199.53C856.002 200.675 855.072 201.607 853.927 201.607C852.777 201.607 851.848 200.679 851.848 199.53C851.848 198.386 852.777 197.453 853.927 197.453C855.069 197.453 856.002 198.382 856.002 199.53Z"
                fill="#00AD6B" />
            <path
                d="M560.11 152.577C560.106 152.577 560.106 152.58 560.106 152.58C560.083 153.44 559.913 155.547 558.872 156.588C557.826 157.632 555.681 157.829 554.806 157.863C554.806 157.863 554.798 157.867 554.798 157.871V157.879V157.886C554.798 157.89 554.802 157.894 554.802 157.894C555.678 157.929 557.826 158.125 558.872 159.17C559.917 160.214 560.083 162.322 560.106 163.181L560.11 163.185H560.114H560.118C560.118 163.185 560.122 163.185 560.122 163.181C560.145 162.322 560.314 160.214 561.356 159.17C562.401 158.125 564.546 157.929 565.422 157.894C565.422 157.894 565.43 157.89 565.43 157.886V157.879V157.871C565.43 157.867 565.426 157.863 565.426 157.863C564.55 157.829 562.405 157.632 561.356 156.588C560.311 155.544 560.145 153.436 560.122 152.58C560.122 152.577 560.121 152.577 560.118 152.577H560.114H560.11Z"
                fill="#F4362C" />
            <path
                d="M743.597 144.716C743.03 145.282 742.108 145.282 741.537 144.716C740.97 144.149 740.97 143.228 741.537 142.658C742.104 142.092 743.026 142.092 743.597 142.658C744.164 143.224 744.164 144.145 743.597 144.716Z"
                fill="#00AD6B" />
            <path
                d="M659.264 191C658.697 191.566 657.775 191.566 657.204 191C656.637 190.433 656.637 189.512 657.204 188.942C657.771 188.375 658.693 188.375 659.264 188.942C659.835 189.512 659.835 190.433 659.264 191Z"
                fill="#00AD6B" />
            <path
                d="M641.485 13.1896C640.918 13.7561 639.996 13.7561 639.425 13.1896C638.858 12.6232 638.858 11.7022 639.425 11.1319C639.992 10.5655 640.914 10.5655 641.485 11.1319C642.052 11.6984 642.052 12.6193 641.485 13.1896Z"
                fill="#00AD6B" />
            <path
                d="M554.956 57.9414C554.389 58.5079 553.467 58.5079 552.896 57.9414C552.329 57.375 552.329 56.454 552.896 55.8837C553.463 55.3173 554.385 55.3173 554.956 55.8837C555.523 56.454 555.523 57.375 554.956 57.9414Z"
                fill="#F4362C" />
            <path
                d="M630.7 150.615C630.694 150.615 630.694 150.615 630.688 150.615C629.613 151.631 626.839 153.997 624.301 153.997C621.75 153.997 618.906 151.625 617.796 150.604C617.796 150.604 617.784 150.598 617.778 150.604L617.772 150.615L617.76 150.627C617.754 150.633 617.754 150.639 617.754 150.639C618.777 151.748 621.151 154.595 621.151 157.143C621.151 159.679 618.783 162.455 617.766 163.529C617.766 163.529 617.766 163.535 617.766 163.541L617.772 163.547H617.778H617.784C617.784 163.547 617.79 163.547 617.796 163.547C618.871 162.531 621.644 160.166 624.189 160.166C626.733 160.166 629.583 162.537 630.694 163.559C630.694 163.559 630.706 163.564 630.712 163.559L630.723 163.547L630.735 163.535C630.741 163.529 630.741 163.523 630.741 163.523C629.719 162.414 627.345 159.567 627.345 157.02C627.345 154.478 629.713 151.707 630.729 150.633C630.729 150.633 630.729 150.627 630.729 150.621V150.615L630.723 150.61L630.7 150.615C630.706 150.615 630.7 150.615 630.7 150.615Z"
                fill="#079DAD" />
            <path
                d="M519.54 172.779C519.54 173.573 518.895 174.216 518.101 174.216C517.306 174.216 516.662 173.573 516.662 172.779C516.662 171.985 517.306 171.342 518.101 171.342C518.895 171.342 519.54 171.985 519.54 172.779Z"
                fill="#00AD6B" />
            <path
                d="M804.048 155.059C803.481 155.626 802.559 155.626 801.988 155.059C801.421 154.493 801.421 153.572 801.988 153.001C802.555 152.435 803.477 152.435 804.048 153.001C804.619 153.572 804.619 154.493 804.048 155.059Z"
                fill="#FF9A09" />
            <path
                d="M934.508 112.16H934.504C934.08 112.561 932.984 113.493 931.981 113.493C930.974 113.493 929.852 112.557 929.412 112.156C929.412 112.156 929.408 112.156 929.404 112.156L929.4 112.16L929.396 112.164V112.168C929.801 112.607 930.739 113.729 930.739 114.734C930.739 115.736 929.805 116.83 929.404 117.254V117.258H929.408C929.832 116.857 930.928 115.925 931.931 115.925C932.938 115.925 934.06 116.861 934.5 117.262C934.5 117.262 934.504 117.262 934.508 117.262L934.512 117.258L934.515 117.254V117.251C934.11 116.811 933.173 115.69 933.173 114.684C933.173 113.682 934.107 112.588 934.508 112.164V112.16Z"
                fill="#079DAD" />
            <path
                d="M573.941 127.047H573.937C573.512 127.448 572.417 128.38 571.414 128.38C570.407 128.38 569.284 127.444 568.845 127.043C568.845 127.043 568.841 127.043 568.837 127.043L568.833 127.047L568.829 127.051V127.055C569.234 127.494 570.172 128.615 570.172 129.621C570.172 130.623 569.238 131.717 568.837 132.141V132.145H568.841C569.265 131.744 570.361 130.812 571.364 130.812C572.37 130.812 573.493 131.748 573.933 132.149C573.933 132.149 573.937 132.149 573.941 132.149L573.944 132.145L573.948 132.141V132.137C573.543 131.698 572.606 130.577 572.606 129.571C572.606 128.569 573.539 127.475 573.941 127.051V127.047Z"
                fill="#FF9A09" />
            <path
                d="M530.951 68.9548C530.947 68.9509 530.943 68.9548 530.943 68.9548C530.129 69.7207 528.036 71.5103 526.114 71.51C524.191 71.5096 522.034 69.7194 521.196 68.9453C521.196 68.9453 521.184 68.9413 521.18 68.9453L521.172 68.9533L521.164 68.9612C521.16 68.9652 521.164 68.9691 521.164 68.9691C521.939 69.8067 523.731 71.962 523.731 73.8829C523.731 75.8038 521.944 77.899 521.174 78.7085L521.174 78.7165L521.178 78.7205L521.182 78.7244C521.182 78.7244 521.186 78.7284 521.19 78.7244C522.004 77.9586 524.097 76.169 526.019 76.1693C527.942 76.1696 530.099 77.9599 530.937 78.7339C530.937 78.7339 530.949 78.7379 530.953 78.7339L530.961 78.726L530.969 78.7181C530.973 78.7141 530.973 78.7062 530.973 78.7062C530.198 77.8686 528.402 75.7172 528.406 73.7924C528.406 71.8715 530.193 69.7762 530.963 68.9667C530.967 68.9628 530.967 68.9628 530.963 68.9588L530.959 68.9548L530.951 68.9548C530.959 68.9548 530.959 68.9548 530.951 68.9548Z"
                fill="#7D766A" />
        </g>
        <g opacity="0.4" clip-path="url(#clip2_1_31)">
            <path
                d="M1436.54 132.153C1436.53 132.153 1436.53 132.157 1436.53 132.157C1436.5 133.189 1436.3 135.732 1435.04 136.989C1433.78 138.249 1431.2 138.484 1430.14 138.526C1430.14 138.526 1430.14 138.53 1430.14 138.534V138.542V138.549C1430.14 138.553 1430.14 138.557 1430.14 138.557C1431.2 138.599 1433.79 138.834 1435.04 140.094C1436.3 141.351 1436.5 143.894 1436.53 144.927C1436.53 144.93 1436.54 144.93 1436.54 144.93H1436.54H1436.54H1436.55L1436.55 144.927C1436.58 143.89 1436.78 141.351 1438.04 140.094C1439.3 138.834 1441.89 138.599 1442.94 138.557C1442.94 138.557 1442.95 138.553 1442.95 138.549V138.542V138.534C1442.95 138.53 1442.94 138.526 1442.94 138.526C1441.89 138.484 1439.3 138.249 1438.04 136.989C1436.78 135.732 1436.58 133.189 1436.55 132.157C1436.55 132.153 1436.55 132.153 1436.55 132.153V132.149H1436.54L1436.54 132.153C1436.54 132.153 1436.54 132.149 1436.54 132.153Z"
                fill="#FF9A09" />
            <path
                d="M1064.31 34.0505C1064.31 34.0467 1064.31 34.0467 1064.31 34.0467C1063.43 34.0235 1061.25 33.8501 1060.18 32.775C1059.1 31.7 1058.9 29.492 1058.86 28.5941C1058.86 28.5903 1058.86 28.5864 1058.86 28.5864H1058.85H1058.84C1058.84 28.5864 1058.83 28.5903 1058.83 28.5941C1058.79 29.492 1058.59 31.7 1057.52 32.775C1056.44 33.8463 1054.27 34.0197 1053.39 34.0467L1053.38 34.0505V34.0544V34.0582L1053.39 34.0621C1054.27 34.0852 1056.44 34.2586 1057.52 35.3337C1058.59 36.4088 1058.79 38.6168 1058.83 39.5146C1058.83 39.5185 1058.84 39.5223 1058.84 39.5223H1058.85H1058.86C1058.86 39.5223 1058.86 39.5185 1058.86 39.5146C1058.9 38.6168 1059.1 36.4088 1060.18 35.3337C1061.25 34.2586 1063.43 34.089 1064.31 34.0621C1064.31 34.0621 1064.31 34.0582 1064.31 34.0582H1064.32V34.0544L1064.31 34.0505C1064.32 34.0544 1064.31 34.0544 1064.31 34.0505Z"
                fill="#079DAD" />
            <path
                d="M1422.66 7.52273C1422.66 7.51887 1422.66 7.52273 1422.66 7.52273C1422.18 7.01408 1421.07 5.70779 1421.07 4.51324C1421.07 3.31484 1422.19 1.97772 1422.66 1.45752C1422.67 1.45366 1422.67 1.45368 1422.66 1.44983L1422.66 1.44597L1422.66 1.44211C1422.66 1.44211 1422.65 1.43826 1422.65 1.44211C1422.13 1.91993 1420.79 3.03742 1419.59 3.03742C1418.39 3.03742 1417.09 1.92379 1416.58 1.44597H1416.58H1416.58V1.44983C1417.06 1.95462 1418.17 3.26091 1418.17 4.45545C1418.17 5.65385 1417.05 6.99097 1416.57 7.51118C1416.57 7.51503 1416.57 7.51504 1416.57 7.51889L1416.58 7.52273L1416.58 7.52658C1416.58 7.52658 1416.58 7.53044 1416.59 7.52658C1417.11 7.04877 1418.45 5.93128 1419.65 5.93128C1420.84 5.93128 1422.15 7.04493 1422.65 7.51889H1422.66L1422.66 7.52273C1422.66 7.52658 1422.66 7.52658 1422.66 7.52273Z"
                fill="#7D766A" />
            <path
                d="M1469.34 21.4615C1469.34 22.6253 1468.39 23.5693 1467.23 23.5693C1466.06 23.5693 1465.12 22.6253 1465.12 21.4615C1465.12 20.2978 1466.06 19.3537 1467.23 19.3537C1468.39 19.3537 1469.34 20.2978 1469.34 21.4615Z"
                fill="#F4362C" />
            <path
                d="M1368.18 26.4363C1368.18 27.9661 1366.94 29.203 1365.41 29.203C1363.88 29.203 1362.64 27.9622 1362.64 26.4363C1362.64 24.9065 1363.88 23.6695 1365.41 23.6695C1366.94 23.6695 1368.18 24.9103 1368.18 26.4363Z"
                fill="#7D766A" />
            <path
                d="M1233.52 176.702C1233.52 178.336 1232.19 179.662 1230.56 179.662C1228.92 179.662 1227.6 178.336 1227.6 176.702C1227.6 175.069 1228.92 173.743 1230.56 173.743C1232.19 173.743 1233.52 175.069 1233.52 176.702Z"
                fill="#7D766A" />
            <path
                d="M1397.99 181.253C1397.99 182.132 1397.28 182.845 1396.4 182.845C1395.52 182.845 1394.8 182.132 1394.8 181.253C1394.8 180.375 1395.52 179.662 1396.4 179.662C1397.28 179.662 1397.99 180.375 1397.99 181.253Z"
                fill="#F4362C" />
            <path
                d="M1275.82 -2.43588C1275.81 -2.43588 1275.81 -2.43203 1275.81 -2.43203C1275.79 -1.62668 1275.63 0.353962 1274.65 1.33272C1273.67 2.31533 1271.65 2.49644 1270.83 2.53112C1270.83 2.53112 1270.83 2.53498 1270.83 2.53883V2.54654V2.55424C1270.83 2.55809 1270.83 2.56195 1270.83 2.56195C1271.65 2.59663 1273.67 2.77774 1274.65 3.76035C1275.63 4.73911 1275.79 6.71974 1275.81 7.52509L1275.82 7.52895H1275.82H1275.82C1275.82 7.52895 1275.83 7.52895 1275.83 7.52509C1275.85 6.71974 1276.01 4.73911 1276.99 3.76035C1277.97 2.77774 1279.99 2.59663 1280.81 2.56195C1280.81 2.56195 1280.82 2.55809 1280.82 2.55424V2.54654V2.53883C1280.82 2.53498 1280.81 2.53112 1280.81 2.53112C1279.99 2.49644 1277.97 2.31533 1276.99 1.33272C1276.01 0.353962 1275.85 -1.62668 1275.83 -2.43203C1275.83 -2.43588 1275.83 -2.43588 1275.82 -2.43588H1275.82H1275.82C1275.82 -2.43588 1275.82 -2.43588 1275.82 -2.43588Z"
                fill="#FF9A09" />
            <path
                d="M1477.6 199.536C1477.6 199.536 1477.6 199.536 1477.59 199.536C1476.91 200.183 1475.13 201.694 1473.51 201.694C1471.89 201.694 1470.07 200.179 1469.36 199.532C1469.36 199.532 1469.36 199.528 1469.35 199.532L1469.35 199.54L1469.34 199.547C1469.34 199.551 1469.34 199.555 1469.34 199.555C1469.99 200.264 1471.51 202.079 1471.51 203.705C1471.51 205.324 1470 207.092 1469.34 207.778V207.782L1469.35 207.786H1469.35H1469.36C1469.36 207.786 1469.36 207.786 1469.36 207.786C1470.05 207.139 1471.82 205.628 1473.44 205.628C1475.07 205.628 1476.89 207.142 1477.59 207.794C1477.59 207.794 1477.6 207.798 1477.6 207.794L1477.61 207.786L1477.62 207.778C1477.62 207.774 1477.62 207.771 1477.62 207.771C1476.97 207.062 1475.45 205.247 1475.45 203.621C1475.45 202.002 1476.96 200.233 1477.61 199.547C1477.61 199.547 1477.61 199.544 1477.61 199.54V199.536L1477.6 199.532L1477.6 199.536C1477.6 199.536 1477.6 199.536 1477.6 199.536Z"
                fill="#079DAD" />
            <path
                d="M1379 199.53C1379 200.675 1378.07 201.607 1376.93 201.607C1375.78 201.607 1374.85 200.679 1374.85 199.53C1374.85 198.386 1375.78 197.453 1376.93 197.453C1378.07 197.453 1379 198.382 1379 199.53Z"
                fill="#00AD6B" />
            <path
                d="M1083.11 152.577C1083.11 152.577 1083.11 152.58 1083.11 152.58C1083.08 153.44 1082.91 155.547 1081.87 156.588C1080.83 157.632 1078.68 157.829 1077.81 157.863C1077.81 157.863 1077.8 157.867 1077.8 157.871V157.879V157.886C1077.8 157.89 1077.8 157.894 1077.8 157.894C1078.68 157.929 1080.83 158.125 1081.87 159.17C1082.92 160.214 1083.08 162.322 1083.11 163.181L1083.11 163.185H1083.11H1083.12C1083.12 163.185 1083.12 163.185 1083.12 163.181C1083.14 162.322 1083.31 160.214 1084.36 159.17C1085.4 158.125 1087.55 157.929 1088.42 157.894C1088.42 157.894 1088.43 157.89 1088.43 157.886V157.879V157.871C1088.43 157.867 1088.43 157.863 1088.43 157.863C1087.55 157.829 1085.41 157.632 1084.36 156.588C1083.31 155.544 1083.14 153.436 1083.12 152.58C1083.12 152.577 1083.12 152.577 1083.12 152.577H1083.11H1083.11Z"
                fill="#F4362C" />
            <path
                d="M1266.6 144.716C1266.03 145.282 1265.11 145.282 1264.54 144.716C1263.97 144.149 1263.97 143.228 1264.54 142.658C1265.1 142.092 1266.03 142.092 1266.6 142.658C1267.16 143.224 1267.16 144.145 1266.6 144.716Z"
                fill="#00AD6B" />
            <path
                d="M1182.26 191C1181.7 191.566 1180.77 191.566 1180.2 191C1179.64 190.433 1179.64 189.512 1180.2 188.942C1180.77 188.375 1181.69 188.375 1182.26 188.942C1182.83 189.512 1182.83 190.433 1182.26 191Z"
                fill="#00AD6B" />
            <path
                d="M1164.49 13.1896C1163.92 13.7561 1163 13.7561 1162.43 13.1896C1161.86 12.6232 1161.86 11.7022 1162.43 11.1319C1162.99 10.5655 1163.91 10.5655 1164.49 11.1319C1165.05 11.6984 1165.05 12.6193 1164.49 13.1896Z"
                fill="#00AD6B" />
            <path
                d="M1077.96 57.9414C1077.39 58.5079 1076.47 58.5079 1075.9 57.9414C1075.33 57.375 1075.33 56.454 1075.9 55.8837C1076.46 55.3173 1077.39 55.3173 1077.96 55.8837C1078.52 56.454 1078.52 57.375 1077.96 57.9414Z"
                fill="#F4362C" />
            <path
                d="M1153.7 150.615C1153.69 150.615 1153.69 150.615 1153.69 150.615C1152.61 151.631 1149.84 153.997 1147.3 153.997C1144.75 153.997 1141.91 151.625 1140.8 150.604C1140.8 150.604 1140.78 150.598 1140.78 150.604L1140.77 150.615L1140.76 150.627C1140.75 150.633 1140.75 150.639 1140.75 150.639C1141.78 151.748 1144.15 154.595 1144.15 157.143C1144.15 159.679 1141.78 162.455 1140.77 163.529C1140.77 163.529 1140.77 163.535 1140.77 163.541L1140.77 163.547H1140.78H1140.78C1140.78 163.547 1140.79 163.547 1140.8 163.547C1141.87 162.531 1144.64 160.166 1147.19 160.166C1149.73 160.166 1152.58 162.537 1153.69 163.559C1153.69 163.559 1153.71 163.564 1153.71 163.559L1153.72 163.547L1153.74 163.535C1153.74 163.529 1153.74 163.523 1153.74 163.523C1152.72 162.414 1150.34 159.567 1150.34 157.02C1150.34 154.478 1152.71 151.707 1153.73 150.633C1153.73 150.633 1153.73 150.627 1153.73 150.621V150.615L1153.72 150.61L1153.7 150.615C1153.71 150.615 1153.7 150.615 1153.7 150.615Z"
                fill="#079DAD" />
            <path
                d="M1042.54 172.779C1042.54 173.573 1041.9 174.216 1041.1 174.216C1040.31 174.216 1039.66 173.573 1039.66 172.779C1039.66 171.985 1040.31 171.342 1041.1 171.342C1041.9 171.342 1042.54 171.985 1042.54 172.779Z"
                fill="#00AD6B" />
            <path
                d="M1327.05 155.059C1326.48 155.626 1325.56 155.626 1324.99 155.059C1324.42 154.493 1324.42 153.572 1324.99 153.001C1325.55 152.435 1326.48 152.435 1327.05 153.001C1327.62 153.572 1327.62 154.493 1327.05 155.059Z"
                fill="#FF9A09" />
            <path
                d="M1457.51 112.16H1457.5C1457.08 112.561 1455.98 113.493 1454.98 113.493C1453.97 113.493 1452.85 112.557 1452.41 112.156C1452.41 112.156 1452.41 112.156 1452.4 112.156L1452.4 112.16L1452.4 112.164V112.168C1452.8 112.607 1453.74 113.729 1453.74 114.734C1453.74 115.736 1452.81 116.83 1452.4 117.254V117.258H1452.41C1452.83 116.857 1453.93 115.925 1454.93 115.925C1455.94 115.925 1457.06 116.861 1457.5 117.262C1457.5 117.262 1457.5 117.262 1457.51 117.262L1457.51 117.258L1457.52 117.254V117.251C1457.11 116.811 1456.17 115.69 1456.17 114.684C1456.17 113.682 1457.11 112.588 1457.51 112.164V112.16Z"
                fill="#079DAD" />
            <path
                d="M1096.94 127.047H1096.94C1096.51 127.448 1095.42 128.38 1094.41 128.38C1093.41 128.38 1092.28 127.444 1091.84 127.043C1091.84 127.043 1091.84 127.043 1091.84 127.043L1091.83 127.047L1091.83 127.051V127.055C1092.23 127.494 1093.17 128.615 1093.17 129.621C1093.17 130.623 1092.24 131.717 1091.84 132.141V132.145H1091.84C1092.27 131.744 1093.36 130.812 1094.36 130.812C1095.37 130.812 1096.49 131.748 1096.93 132.149C1096.93 132.149 1096.94 132.149 1096.94 132.149L1096.94 132.145L1096.95 132.141V132.137C1096.54 131.698 1095.61 130.577 1095.61 129.571C1095.61 128.569 1096.54 127.475 1096.94 127.051V127.047Z"
                fill="#FF9A09" />
            <path
                d="M1053.95 68.9548C1053.95 68.9509 1053.94 68.9548 1053.94 68.9548C1053.13 69.7207 1051.04 71.5103 1049.11 71.51C1047.19 71.5096 1045.03 69.7194 1044.2 68.9453C1044.2 68.9453 1044.18 68.9413 1044.18 68.9453L1044.17 68.9533L1044.16 68.9612C1044.16 68.9652 1044.16 68.9691 1044.16 68.9691C1044.94 69.8067 1046.73 71.962 1046.73 73.8829C1046.73 75.8038 1044.94 77.899 1044.17 78.7085L1044.17 78.7165L1044.18 78.7205L1044.18 78.7244C1044.18 78.7244 1044.19 78.7284 1044.19 78.7244C1045 77.9586 1047.1 76.169 1049.02 76.1693C1050.94 76.1696 1053.1 77.9599 1053.94 78.7339C1053.94 78.7339 1053.95 78.7379 1053.95 78.7339L1053.96 78.726L1053.97 78.7181C1053.97 78.7141 1053.97 78.7062 1053.97 78.7062C1053.2 77.8686 1051.4 75.7172 1051.41 73.7924C1051.41 71.8715 1053.19 69.7762 1053.96 68.9667C1053.97 68.9628 1053.97 68.9628 1053.96 68.9588L1053.96 68.9548L1053.95 68.9548C1053.96 68.9548 1053.96 68.9548 1053.95 68.9548Z"
                fill="#7D766A" />
        </g>
        <g opacity="0.4" clip-path="url(#clip3_1_31)">
            <path
                d="M412.536 432.153C412.532 432.153 412.532 432.157 412.532 432.157C412.505 433.189 412.3 435.732 411.043 436.989C409.781 438.249 407.197 438.484 406.144 438.526C406.144 438.526 406.136 438.53 406.136 438.534V438.542V438.549C406.136 438.553 406.14 438.557 406.14 438.557C407.197 438.599 409.785 438.834 411.043 440.094C412.3 441.351 412.501 443.894 412.532 444.927C412.532 444.93 412.536 444.93 412.536 444.93H412.54H412.544H412.547L412.551 444.927C412.578 443.89 412.783 441.351 414.04 440.094C415.302 438.834 417.886 438.599 418.939 438.557C418.939 438.557 418.947 438.553 418.947 438.549V438.542V438.534C418.947 438.53 418.943 438.526 418.943 438.526C417.886 438.484 415.302 438.249 414.04 436.989C412.783 435.732 412.578 433.189 412.551 432.157C412.551 432.153 412.547 432.153 412.547 432.153V432.149H412.544L412.536 432.153C412.536 432.153 412.536 432.149 412.536 432.153Z"
                fill="#FF9A09" />
            <path
                d="M40.3136 334.051C40.3136 334.047 40.3097 334.047 40.3097 334.047C39.4264 334.024 37.2507 333.85 36.1782 332.775C35.102 331.7 34.9014 329.492 34.8628 328.594C34.8628 328.59 34.859 328.586 34.8551 328.586H34.8474H34.8397C34.8358 328.586 34.832 328.59 34.832 328.594C34.7934 329.492 34.5928 331.7 33.5165 332.775C32.4403 333.846 30.2684 334.02 29.385 334.047L29.3812 334.051V334.054V334.058L29.385 334.062C30.2684 334.085 32.4441 334.259 33.5165 335.334C34.5928 336.409 34.7934 338.617 34.832 339.515C34.832 339.518 34.8358 339.522 34.8397 339.522H34.8474H34.8551C34.859 339.522 34.8628 339.518 34.8628 339.515C34.8975 338.617 35.102 336.409 36.1782 335.334C37.2507 334.259 39.4264 334.089 40.3097 334.062C40.3136 334.062 40.3136 334.058 40.3136 334.058H40.3175V334.054L40.3136 334.051C40.3175 334.054 40.3136 334.054 40.3136 334.051Z"
                fill="#079DAD" />
            <path
                d="M314.656 267.442C314.649 267.442 314.649 267.442 314.643 267.442C313.592 268.433 310.885 270.742 308.402 270.742C305.913 270.742 303.134 268.426 302.051 267.429C302.051 267.429 302.044 267.429 302.037 267.429L302.031 267.435L302.024 267.442C302.018 267.448 302.018 267.455 302.024 267.455C303.023 268.538 305.341 271.313 305.341 273.8C305.341 276.28 303.029 278.983 302.037 280.033V280.04V280.046H302.044H302.051C302.051 280.046 302.057 280.046 302.064 280.046C303.115 279.055 305.821 276.746 308.304 276.746C310.787 276.746 313.572 279.062 314.656 280.059C314.662 280.066 314.669 280.066 314.669 280.059L314.675 280.053L314.682 280.046C314.689 280.04 314.689 280.033 314.682 280.033C313.684 278.95 311.365 276.175 311.365 273.688C311.365 271.208 313.677 268.505 314.669 267.455V267.448L314.662 267.442H314.656Z"
                fill="#00AD6B" />
            <path
                d="M398.66 307.523C398.664 307.519 398.664 307.523 398.66 307.523C398.182 307.014 397.067 305.708 397.067 304.513C397.067 303.315 398.186 301.978 398.664 301.458C398.668 301.454 398.668 301.454 398.664 301.45L398.66 301.446L398.657 301.442C398.657 301.442 398.653 301.438 398.649 301.442C398.128 301.92 396.786 303.037 395.59 303.037C394.394 303.037 393.09 301.924 392.585 301.446H392.581H392.577V301.45C393.055 301.955 394.17 303.261 394.17 304.455C394.17 305.654 393.051 306.991 392.573 307.511C392.569 307.515 392.573 307.515 392.573 307.519L392.577 307.523L392.581 307.527C392.581 307.527 392.585 307.53 392.589 307.527C393.109 307.049 394.448 305.931 395.648 305.931C396.843 305.931 398.147 307.045 398.653 307.519H398.657L398.66 307.523C398.66 307.527 398.66 307.527 398.66 307.523Z"
                fill="#7D766A" />
            <path
                d="M445.337 321.462C445.337 322.625 444.392 323.569 443.227 323.569C442.062 323.569 441.117 322.625 441.117 321.462C441.117 320.298 442.062 319.354 443.227 319.354C444.392 319.354 445.337 320.298 445.337 321.462Z"
                fill="#F4362C" />
            <path
                d="M344.178 326.436C344.178 327.966 342.936 329.203 341.408 329.203C339.877 329.203 338.639 327.962 338.639 326.436C338.639 324.906 339.877 323.67 341.408 323.67C342.936 323.67 344.178 324.91 344.178 326.436Z"
                fill="#7D766A" />
            <path
                d="M209.522 476.702C209.522 478.336 208.195 479.662 206.559 479.662C204.923 479.662 203.596 478.336 203.596 476.702C203.596 475.069 204.923 473.743 206.559 473.743C208.195 473.743 209.522 475.069 209.522 476.702Z"
                fill="#7D766A" />
            <path
                d="M373.99 481.253C373.99 482.132 373.276 482.845 372.396 482.845C371.517 482.845 370.803 482.132 370.803 481.253C370.803 480.375 371.517 479.662 372.396 479.662C373.276 479.662 373.99 480.375 373.99 481.253Z"
                fill="#F4362C" />
            <path
                d="M251.817 297.564C251.813 297.564 251.813 297.568 251.813 297.568C251.79 298.373 251.632 300.354 250.652 301.333C249.669 302.315 247.655 302.496 246.833 302.531C246.833 302.531 246.826 302.535 246.826 302.539V302.547V302.554C246.826 302.558 246.829 302.562 246.829 302.562C247.655 302.597 249.669 302.778 250.652 303.76C251.632 304.739 251.79 306.72 251.813 307.525L251.817 307.529H251.821H251.825C251.825 307.529 251.829 307.529 251.829 307.525C251.852 306.72 252.01 304.739 252.99 303.76C253.974 302.778 255.987 302.597 256.809 302.562C256.809 302.562 256.817 302.558 256.817 302.554V302.547V302.539C256.817 302.535 256.813 302.531 256.813 302.531C255.987 302.496 253.974 302.315 252.99 301.333C252.01 300.354 251.852 298.373 251.829 297.568C251.829 297.564 251.829 297.564 251.825 297.564H251.821H251.817C251.821 297.564 251.817 297.564 251.817 297.564Z"
                fill="#FF9A09" />
            <path
                d="M191.507 282.411C191.507 283.205 190.863 283.849 190.068 283.849C189.273 283.849 188.629 283.205 188.629 282.411C188.629 281.618 189.273 280.974 190.068 280.974C190.863 280.974 191.507 281.618 191.507 282.411Z"
                fill="#7D766A" />
            <path
                d="M266.114 284.575C266.114 285.778 265.138 286.752 263.934 286.752C262.731 286.752 261.755 285.778 261.755 284.575C261.755 283.373 262.731 282.398 263.934 282.398C265.138 282.398 266.114 283.373 266.114 284.575Z"
                fill="#F4362C" />
            <path
                d="M453.6 499.536C453.596 499.536 453.596 499.536 453.592 499.536C452.906 500.183 451.135 501.694 449.515 501.694C447.891 501.694 446.07 500.179 445.364 499.532C445.364 499.532 445.356 499.528 445.352 499.532L445.349 499.54L445.341 499.547C445.337 499.551 445.337 499.555 445.337 499.555C445.989 500.264 447.505 502.079 447.505 503.705C447.505 505.324 445.997 507.092 445.345 507.778V507.782L445.349 507.786H445.352H445.356C445.356 507.786 445.36 507.786 445.364 507.786C446.051 507.139 447.821 505.628 449.442 505.628C451.066 505.628 452.886 507.142 453.592 507.794C453.592 507.794 453.6 507.798 453.604 507.794L453.608 507.786L453.615 507.778C453.619 507.774 453.619 507.771 453.619 507.771C452.967 507.062 451.451 505.247 451.451 503.621C451.451 502.002 452.96 500.233 453.608 499.547C453.608 499.547 453.608 499.544 453.608 499.54V499.536L453.604 499.532L453.6 499.536C453.604 499.536 453.604 499.536 453.6 499.536Z"
                fill="#079DAD" />
            <path
                d="M355.002 499.53C355.002 500.675 354.072 501.607 352.927 501.607C351.777 501.607 350.848 500.679 350.848 499.53C350.848 498.386 351.777 497.453 352.927 497.453C354.069 497.453 355.002 498.382 355.002 499.53Z"
                fill="#00AD6B" />
            <path
                d="M59.11 452.577C59.1061 452.577 59.1061 452.58 59.1061 452.58C59.083 453.44 58.9132 455.547 57.8717 456.588C56.8263 457.632 54.6814 457.829 53.8058 457.863C53.8058 457.863 53.798 457.867 53.798 457.871V457.879V457.886C53.798 457.89 53.8019 457.894 53.8019 457.894C54.6776 457.929 56.8263 458.125 57.8717 459.17C58.9171 460.214 59.083 462.322 59.1061 463.181L59.11 463.185H59.1138H59.1177C59.1177 463.185 59.1215 463.185 59.1215 463.181C59.1447 462.322 59.3144 460.214 60.356 459.17C61.4014 458.125 63.5462 457.929 64.4219 457.894C64.4219 457.894 64.4296 457.89 64.4296 457.886V457.879V457.871C64.4296 457.867 64.4257 457.863 64.4257 457.863C63.5501 457.829 61.4052 457.632 60.356 456.588C59.3105 455.544 59.1447 453.436 59.1215 452.58C59.1215 452.577 59.1215 452.577 59.1177 452.577H59.1138H59.11Z"
                fill="#F4362C" />
            <path
                d="M242.597 444.716C242.03 445.282 241.108 445.282 240.537 444.716C239.97 444.149 239.97 443.228 240.537 442.658C241.104 442.092 242.026 442.092 242.597 442.658C243.164 443.224 243.164 444.145 242.597 444.716Z"
                fill="#00AD6B" />
            <path
                d="M158.264 491C157.697 491.566 156.775 491.566 156.204 491C155.637 490.433 155.637 489.512 156.204 488.942C156.771 488.375 157.693 488.375 158.264 488.942C158.835 489.512 158.835 490.433 158.264 491Z"
                fill="#00AD6B" />
            <path
                d="M140.485 313.19C139.918 313.756 138.996 313.756 138.425 313.19C137.858 312.623 137.858 311.702 138.425 311.132C138.992 310.565 139.914 310.565 140.485 311.132C141.052 311.698 141.052 312.619 140.485 313.19Z"
                fill="#00AD6B" />
            <path
                d="M22.0578 292.315C21.4907 292.881 20.5687 292.881 19.9978 292.315C19.4307 291.748 19.4307 290.827 19.9978 290.257C20.5649 289.69 21.4868 289.69 22.0578 290.257C22.6287 290.827 22.6287 291.748 22.0578 292.315Z"
                fill="#FF9A09" />
            <path
                d="M53.9564 357.941C53.3893 358.508 52.4674 358.508 51.8964 357.941C51.3294 357.375 51.3294 356.454 51.8964 355.884C52.4635 355.317 53.3855 355.317 53.9564 355.884C54.5235 356.454 54.5235 357.375 53.9564 357.941Z"
                fill="#F4362C" />
            <path
                d="M54.8279 267.285C54.2608 267.852 53.3389 267.852 52.768 267.285C52.2009 266.719 52.2009 265.798 52.768 265.228C53.335 264.661 54.257 264.661 54.8279 265.228C55.395 265.798 55.395 266.719 54.8279 267.285Z"
                fill="#079DAD" />
            <path
                d="M129.7 450.615C129.694 450.615 129.694 450.615 129.688 450.615C128.613 451.631 125.839 453.997 123.301 453.997C120.75 453.997 117.906 451.625 116.796 450.604C116.796 450.604 116.784 450.598 116.778 450.604L116.772 450.615L116.76 450.627C116.754 450.633 116.754 450.639 116.754 450.639C117.777 451.748 120.151 454.595 120.151 457.143C120.151 459.679 117.783 462.455 116.766 463.529C116.766 463.529 116.766 463.535 116.766 463.541L116.772 463.547H116.778H116.784C116.784 463.547 116.79 463.547 116.796 463.547C117.871 462.531 120.645 460.166 123.189 460.166C125.733 460.166 128.583 462.537 129.694 463.559C129.694 463.559 129.706 463.564 129.712 463.559L129.723 463.547L129.735 463.535C129.741 463.529 129.741 463.523 129.741 463.523C128.719 462.414 126.345 459.567 126.345 457.02C126.345 454.478 128.713 451.707 129.729 450.633C129.729 450.633 129.729 450.627 129.729 450.621V450.615L129.723 450.61L129.7 450.615C129.706 450.615 129.7 450.615 129.7 450.615Z"
                fill="#079DAD" />
            <path
                d="M125.471 282.411C125.465 282.411 125.465 282.418 125.465 282.418C125.424 283.825 125.148 287.283 123.437 288.993C121.719 290.709 118.203 291.025 116.768 291.085C116.768 291.085 116.754 291.092 116.754 291.099V291.112V291.126C116.754 291.133 116.761 291.139 116.761 291.139C118.203 291.2 121.719 291.516 123.437 293.232C125.148 294.941 125.424 298.4 125.465 299.807L125.471 299.813H125.478H125.485C125.485 299.813 125.492 299.813 125.492 299.807C125.532 298.4 125.808 294.941 127.519 293.232C129.237 291.516 132.754 291.2 134.189 291.139C134.189 291.139 134.202 291.133 134.202 291.126V291.112V291.099C134.202 291.092 134.195 291.085 134.195 291.085C132.754 291.025 129.237 290.709 127.519 288.993C125.808 287.283 125.532 283.825 125.492 282.418C125.492 282.411 125.492 282.411 125.485 282.411H125.478H125.471C125.478 282.411 125.471 282.411 125.471 282.411Z"
                fill="#FF9A09" />
            <path
                d="M435.573 263.99H435.57C435.188 264.353 434.196 265.196 433.29 265.196C432.379 265.196 431.365 264.349 430.971 263.987C430.971 263.987 430.967 263.987 430.964 263.987L430.96 263.99L430.956 263.994V263.998C431.322 264.395 432.167 265.408 432.167 266.318C432.167 267.223 431.322 268.21 430.96 268.595V268.599H430.964C431.346 268.237 432.337 267.393 433.243 267.393C434.15 267.393 435.168 268.241 435.562 268.603C435.562 268.603 435.566 268.603 435.57 268.603L435.573 268.599L435.577 268.595V268.591C435.211 268.194 434.366 267.181 434.366 266.272C434.366 265.366 435.211 264.376 435.573 263.994V263.99C435.577 263.994 435.577 263.994 435.577 263.994L435.573 263.99C435.577 263.99 435.577 263.99 435.573 263.99Z"
                fill="#FF9A09" />
            <path
                d="M18.5396 472.779C18.5396 473.573 17.8954 474.216 17.1007 474.216C16.306 474.216 15.6618 473.573 15.6618 472.779C15.6618 471.985 16.306 471.342 17.1007 471.342C17.8954 471.342 18.5396 471.985 18.5396 472.779Z"
                fill="#00AD6B" />
            <path
                d="M303.048 455.059C302.481 455.626 301.559 455.626 300.988 455.059C300.421 454.493 300.421 453.572 300.988 453.001C301.555 452.435 302.477 452.435 303.048 453.001C303.619 453.572 303.619 454.493 303.048 455.059Z"
                fill="#FF9A09" />
            <path
                d="M433.508 412.16H433.504C433.08 412.561 431.984 413.493 430.981 413.493C429.974 413.493 428.852 412.557 428.412 412.156C428.412 412.156 428.408 412.156 428.404 412.156L428.4 412.16L428.396 412.164V412.168C428.801 412.607 429.739 413.729 429.739 414.734C429.739 415.736 428.805 416.83 428.404 417.254V417.258H428.408C428.832 416.857 429.928 415.925 430.931 415.925C431.938 415.925 433.06 416.861 433.5 417.262C433.5 417.262 433.504 417.262 433.508 417.262L433.512 417.258L433.515 417.254V417.251C433.11 416.811 432.173 415.69 432.173 414.684C432.173 413.682 433.107 412.588 433.508 412.164V412.16Z"
                fill="#079DAD" />
            <path
                d="M72.9405 427.047H72.9366C72.5123 427.448 71.4167 428.38 70.4138 428.38C69.4069 428.38 68.2844 427.444 67.8446 427.043C67.8446 427.043 67.8407 427.043 67.8369 427.043L67.833 427.047L67.8292 427.051V427.055C68.2342 427.494 69.1716 428.615 69.1716 429.621C69.1716 430.623 68.2381 431.717 67.8369 432.141V432.145H67.8407C68.2651 431.744 69.3606 430.812 70.3636 430.812C71.3704 430.812 72.493 431.748 72.9328 432.149C72.9328 432.149 72.9366 432.149 72.9405 432.149L72.9444 432.145L72.9482 432.141V432.137C72.5432 431.698 71.6058 430.577 71.6058 429.571C71.6058 428.569 72.5393 427.475 72.9405 427.051V427.047Z"
                fill="#FF9A09" />
            <path
                d="M29.9511 368.955C29.9472 368.951 29.9432 368.955 29.9432 368.955C29.1291 369.721 27.0362 371.51 25.1138 371.51C23.1914 371.51 21.0344 369.719 20.1962 368.945C20.1962 368.945 20.1843 368.941 20.1803 368.945L20.1724 368.953L20.1644 368.961C20.1605 368.965 20.1644 368.969 20.1644 368.969C20.9391 369.807 22.7307 371.962 22.7311 373.883C22.7314 375.804 20.9444 377.899 20.174 378.709L20.1739 378.716L20.1779 378.72L20.1819 378.724C20.1819 378.724 20.1859 378.728 20.1898 378.724C21.004 377.959 23.0968 376.169 25.0192 376.169C26.9416 376.17 29.0986 377.96 29.9368 378.734C29.9368 378.734 29.9487 378.738 29.9527 378.734L29.9606 378.726L29.9686 378.718C29.9726 378.714 29.9726 378.706 29.9726 378.706C29.1979 377.869 27.4023 375.717 27.4059 373.792C27.4056 371.871 29.1926 369.776 29.963 368.967C29.967 368.963 29.967 368.963 29.963 368.959L29.9591 368.955L29.9511 368.955C29.9591 368.955 29.9591 368.955 29.9511 368.955Z"
                fill="#7D766A" />
        </g>
        <g opacity="0.4" clip-path="url(#clip4_1_31)">
            <path
                d="M913.536 432.153C913.532 432.153 913.532 432.157 913.532 432.157C913.505 433.189 913.3 435.732 912.043 436.989C910.781 438.249 908.197 438.484 907.144 438.526C907.144 438.526 907.136 438.53 907.136 438.534V438.542V438.549C907.136 438.553 907.14 438.557 907.14 438.557C908.197 438.599 910.785 438.834 912.043 440.094C913.3 441.351 913.501 443.894 913.532 444.927C913.532 444.93 913.536 444.93 913.536 444.93H913.54H913.544H913.547L913.551 444.927C913.578 443.89 913.783 441.351 915.04 440.094C916.302 438.834 918.886 438.599 919.939 438.557C919.939 438.557 919.947 438.553 919.947 438.549V438.542V438.534C919.947 438.53 919.943 438.526 919.943 438.526C918.886 438.484 916.302 438.249 915.04 436.989C913.783 435.732 913.578 433.189 913.551 432.157C913.551 432.153 913.547 432.153 913.547 432.153V432.149H913.544L913.536 432.153C913.536 432.153 913.536 432.149 913.536 432.153Z"
                fill="#FF9A09" />
            <path
                d="M541.314 334.051C541.314 334.047 541.31 334.047 541.31 334.047C540.426 334.024 538.251 333.85 537.178 332.775C536.102 331.7 535.901 329.492 535.863 328.594C535.863 328.59 535.859 328.586 535.855 328.586H535.847H535.84C535.836 328.586 535.832 328.59 535.832 328.594C535.793 329.492 535.593 331.7 534.517 332.775C533.44 333.846 531.268 334.02 530.385 334.047L530.381 334.051V334.054V334.058L530.385 334.062C531.268 334.085 533.444 334.259 534.517 335.334C535.593 336.409 535.793 338.617 535.832 339.515C535.832 339.518 535.836 339.522 535.84 339.522H535.847H535.855C535.859 339.522 535.863 339.518 535.863 339.515C535.898 338.617 536.102 336.409 537.178 335.334C538.251 334.259 540.426 334.089 541.31 334.062C541.314 334.062 541.314 334.058 541.314 334.058H541.317V334.054L541.314 334.051C541.317 334.054 541.314 334.054 541.314 334.051Z"
                fill="#079DAD" />
            <path
                d="M815.656 267.442C815.649 267.442 815.649 267.442 815.643 267.442C814.592 268.433 811.885 270.742 809.402 270.742C806.913 270.742 804.134 268.426 803.051 267.429C803.051 267.429 803.044 267.429 803.037 267.429L803.031 267.435L803.024 267.442C803.018 267.448 803.018 267.455 803.024 267.455C804.023 268.538 806.341 271.313 806.341 273.8C806.341 276.28 804.029 278.983 803.037 280.033V280.04V280.046H803.044H803.051C803.051 280.046 803.057 280.046 803.064 280.046C804.115 279.055 806.821 276.746 809.304 276.746C811.787 276.746 814.572 279.062 815.656 280.059C815.662 280.066 815.669 280.066 815.669 280.059L815.675 280.053L815.682 280.046C815.689 280.04 815.689 280.033 815.682 280.033C814.684 278.95 812.365 276.175 812.365 273.688C812.365 271.208 814.677 268.505 815.669 267.455V267.448L815.662 267.442H815.656Z"
                fill="#00AD6B" />
            <path
                d="M899.66 307.523C899.664 307.519 899.664 307.523 899.66 307.523C899.182 307.014 898.067 305.708 898.067 304.513C898.067 303.315 899.186 301.978 899.664 301.458C899.668 301.454 899.668 301.454 899.664 301.45L899.66 301.446L899.657 301.442C899.657 301.442 899.653 301.438 899.649 301.442C899.128 301.92 897.786 303.037 896.59 303.037C895.394 303.037 894.09 301.924 893.585 301.446H893.581H893.577V301.45C894.055 301.955 895.17 303.261 895.17 304.455C895.17 305.654 894.051 306.991 893.573 307.511C893.569 307.515 893.573 307.515 893.573 307.519L893.577 307.523L893.581 307.527C893.581 307.527 893.585 307.53 893.589 307.527C894.109 307.049 895.448 305.931 896.648 305.931C897.843 305.931 899.147 307.045 899.653 307.519H899.657L899.66 307.523C899.66 307.527 899.66 307.527 899.66 307.523Z"
                fill="#7D766A" />
            <path
                d="M946.337 321.462C946.337 322.625 945.392 323.569 944.227 323.569C943.062 323.569 942.117 322.625 942.117 321.462C942.117 320.298 943.062 319.354 944.227 319.354C945.392 319.354 946.337 320.298 946.337 321.462Z"
                fill="#F4362C" />
            <path
                d="M845.178 326.436C845.178 327.966 843.936 329.203 842.408 329.203C840.877 329.203 839.639 327.962 839.639 326.436C839.639 324.906 840.877 323.67 842.408 323.67C843.936 323.67 845.178 324.91 845.178 326.436Z"
                fill="#7D766A" />
            <path
                d="M710.522 476.702C710.522 478.336 709.195 479.662 707.559 479.662C705.923 479.662 704.596 478.336 704.596 476.702C704.596 475.069 705.923 473.743 707.559 473.743C709.195 473.743 710.522 475.069 710.522 476.702Z"
                fill="#7D766A" />
            <path
                d="M874.99 481.253C874.99 482.132 874.276 482.845 873.396 482.845C872.517 482.845 871.803 482.132 871.803 481.253C871.803 480.375 872.517 479.662 873.396 479.662C874.276 479.662 874.99 480.375 874.99 481.253Z"
                fill="#F4362C" />
            <path
                d="M752.817 297.564C752.813 297.564 752.813 297.568 752.813 297.568C752.79 298.373 752.632 300.354 751.652 301.333C750.669 302.315 748.655 302.496 747.833 302.531C747.833 302.531 747.826 302.535 747.826 302.539V302.547V302.554C747.826 302.558 747.829 302.562 747.829 302.562C748.655 302.597 750.669 302.778 751.652 303.76C752.632 304.739 752.79 306.72 752.813 307.525L752.817 307.529H752.821H752.825C752.825 307.529 752.829 307.529 752.829 307.525C752.852 306.72 753.01 304.739 753.99 303.76C754.974 302.778 756.987 302.597 757.809 302.562C757.809 302.562 757.817 302.558 757.817 302.554V302.547V302.539C757.817 302.535 757.813 302.531 757.813 302.531C756.987 302.496 754.974 302.315 753.99 301.333C753.01 300.354 752.852 298.373 752.829 297.568C752.829 297.564 752.829 297.564 752.825 297.564H752.821H752.817C752.821 297.564 752.817 297.564 752.817 297.564Z"
                fill="#FF9A09" />
            <path
                d="M692.507 282.411C692.507 283.205 691.863 283.849 691.068 283.849C690.273 283.849 689.629 283.205 689.629 282.411C689.629 281.618 690.273 280.974 691.068 280.974C691.863 280.974 692.507 281.618 692.507 282.411Z"
                fill="#7D766A" />
            <path
                d="M767.114 284.575C767.114 285.778 766.138 286.752 764.934 286.752C763.73 286.752 762.754 285.778 762.754 284.575C762.754 283.373 763.73 282.398 764.934 282.398C766.138 282.398 767.114 283.373 767.114 284.575Z"
                fill="#F4362C" />
            <path
                d="M954.6 499.536C954.596 499.536 954.596 499.536 954.592 499.536C953.906 500.183 952.135 501.694 950.515 501.694C948.891 501.694 947.07 500.179 946.364 499.532C946.364 499.532 946.356 499.528 946.352 499.532L946.349 499.54L946.341 499.547C946.337 499.551 946.337 499.555 946.337 499.555C946.989 500.264 948.505 502.079 948.505 503.705C948.505 505.324 946.997 507.092 946.345 507.778V507.782L946.349 507.786H946.352H946.356C946.356 507.786 946.36 507.786 946.364 507.786C947.051 507.139 948.821 505.628 950.442 505.628C952.066 505.628 953.886 507.142 954.592 507.794C954.592 507.794 954.6 507.798 954.604 507.794L954.608 507.786L954.615 507.778C954.619 507.774 954.619 507.771 954.619 507.771C953.967 507.062 952.451 505.247 952.451 503.621C952.451 502.002 953.96 500.233 954.608 499.547C954.608 499.547 954.608 499.544 954.608 499.54V499.536L954.604 499.532L954.6 499.536C954.604 499.536 954.604 499.536 954.6 499.536Z"
                fill="#079DAD" />
            <path
                d="M856.002 499.53C856.002 500.675 855.072 501.607 853.927 501.607C852.777 501.607 851.848 500.679 851.848 499.53C851.848 498.386 852.777 497.453 853.927 497.453C855.069 497.453 856.002 498.382 856.002 499.53Z"
                fill="#00AD6B" />
            <path
                d="M560.11 452.577C560.106 452.577 560.106 452.58 560.106 452.58C560.083 453.44 559.913 455.547 558.872 456.588C557.826 457.632 555.681 457.829 554.806 457.863C554.806 457.863 554.798 457.867 554.798 457.871V457.879V457.886C554.798 457.89 554.802 457.894 554.802 457.894C555.678 457.929 557.826 458.125 558.872 459.17C559.917 460.214 560.083 462.322 560.106 463.181L560.11 463.185H560.114H560.118C560.118 463.185 560.122 463.185 560.122 463.181C560.145 462.322 560.314 460.214 561.356 459.17C562.401 458.125 564.546 457.929 565.422 457.894C565.422 457.894 565.43 457.89 565.43 457.886V457.879V457.871C565.43 457.867 565.426 457.863 565.426 457.863C564.55 457.829 562.405 457.632 561.356 456.588C560.311 455.544 560.145 453.436 560.122 452.58C560.122 452.577 560.121 452.577 560.118 452.577H560.114H560.11Z"
                fill="#F4362C" />
            <path
                d="M743.597 444.716C743.03 445.282 742.108 445.282 741.537 444.716C740.97 444.149 740.97 443.228 741.537 442.658C742.104 442.092 743.026 442.092 743.597 442.658C744.164 443.224 744.164 444.145 743.597 444.716Z"
                fill="#00AD6B" />
            <path
                d="M659.264 491C658.697 491.566 657.775 491.566 657.204 491C656.637 490.433 656.637 489.512 657.204 488.942C657.771 488.375 658.693 488.375 659.264 488.942C659.835 489.512 659.835 490.433 659.264 491Z"
                fill="#00AD6B" />
            <path
                d="M641.485 313.19C640.918 313.756 639.996 313.756 639.425 313.19C638.858 312.623 638.858 311.702 639.425 311.132C639.992 310.565 640.914 310.565 641.485 311.132C642.052 311.698 642.052 312.619 641.485 313.19Z"
                fill="#00AD6B" />
            <path
                d="M523.058 292.315C522.491 292.881 521.569 292.881 520.998 292.315C520.431 291.748 520.431 290.827 520.998 290.257C521.565 289.69 522.487 289.69 523.058 290.257C523.629 290.827 523.629 291.748 523.058 292.315Z"
                fill="#FF9A09" />
            <path
                d="M554.956 357.941C554.389 358.508 553.467 358.508 552.896 357.941C552.329 357.375 552.329 356.454 552.896 355.884C553.463 355.317 554.385 355.317 554.956 355.884C555.523 356.454 555.523 357.375 554.956 357.941Z"
                fill="#F4362C" />
            <path
                d="M555.828 267.285C555.261 267.852 554.339 267.852 553.768 267.285C553.201 266.719 553.201 265.798 553.768 265.228C554.335 264.661 555.257 264.661 555.828 265.228C556.395 265.798 556.395 266.719 555.828 267.285Z"
                fill="#079DAD" />
            <path
                d="M630.7 450.615C630.694 450.615 630.694 450.615 630.688 450.615C629.613 451.631 626.839 453.997 624.301 453.997C621.75 453.997 618.906 451.625 617.796 450.604C617.796 450.604 617.784 450.598 617.778 450.604L617.772 450.615L617.76 450.627C617.754 450.633 617.754 450.639 617.754 450.639C618.777 451.748 621.151 454.595 621.151 457.143C621.151 459.679 618.783 462.455 617.766 463.529C617.766 463.529 617.766 463.535 617.766 463.541L617.772 463.547H617.778H617.784C617.784 463.547 617.79 463.547 617.796 463.547C618.871 462.531 621.644 460.166 624.189 460.166C626.733 460.166 629.583 462.537 630.694 463.559C630.694 463.559 630.706 463.564 630.712 463.559L630.723 463.547L630.735 463.535C630.741 463.529 630.741 463.523 630.741 463.523C629.719 462.414 627.345 459.567 627.345 457.02C627.345 454.478 629.713 451.707 630.729 450.633C630.729 450.633 630.729 450.627 630.729 450.621V450.615L630.723 450.61L630.7 450.615C630.706 450.615 630.7 450.615 630.7 450.615Z"
                fill="#079DAD" />
            <path
                d="M626.471 282.411C626.465 282.411 626.465 282.418 626.465 282.418C626.424 283.825 626.148 287.283 624.437 288.993C622.719 290.709 619.203 291.025 617.768 291.085C617.768 291.085 617.754 291.092 617.754 291.099V291.112V291.126C617.754 291.133 617.761 291.139 617.761 291.139C619.203 291.2 622.719 291.516 624.437 293.232C626.148 294.941 626.424 298.4 626.465 299.807L626.471 299.813H626.478H626.485C626.485 299.813 626.492 299.813 626.492 299.807C626.532 298.4 626.808 294.941 628.519 293.232C630.237 291.516 633.754 291.2 635.189 291.139C635.189 291.139 635.202 291.133 635.202 291.126V291.112V291.099C635.202 291.092 635.195 291.085 635.195 291.085C633.754 291.025 630.237 290.709 628.519 288.993C626.808 287.283 626.532 283.825 626.492 282.418C626.492 282.411 626.492 282.411 626.485 282.411H626.478H626.471C626.478 282.411 626.471 282.411 626.471 282.411Z"
                fill="#FF9A09" />
            <path
                d="M936.573 263.99H936.57C936.188 264.353 935.196 265.196 934.29 265.196C933.379 265.196 932.365 264.349 931.971 263.987C931.971 263.987 931.967 263.987 931.964 263.987L931.96 263.99L931.956 263.994V263.998C932.322 264.395 933.167 265.408 933.167 266.318C933.167 267.223 932.322 268.21 931.96 268.595V268.599H931.964C932.346 268.237 933.337 267.393 934.243 267.393C935.15 267.393 936.168 268.241 936.562 268.603C936.562 268.603 936.566 268.603 936.57 268.603L936.573 268.599L936.577 268.595V268.591C936.211 268.194 935.366 267.181 935.366 266.272C935.366 265.366 936.211 264.376 936.573 263.994V263.99C936.577 263.994 936.577 263.994 936.577 263.994L936.573 263.99C936.577 263.99 936.577 263.99 936.573 263.99Z"
                fill="#FF9A09" />
            <path
                d="M519.54 472.779C519.54 473.573 518.895 474.216 518.101 474.216C517.306 474.216 516.662 473.573 516.662 472.779C516.662 471.985 517.306 471.342 518.101 471.342C518.895 471.342 519.54 471.985 519.54 472.779Z"
                fill="#00AD6B" />
            <path
                d="M804.048 455.059C803.481 455.626 802.559 455.626 801.988 455.059C801.421 454.493 801.421 453.572 801.988 453.001C802.555 452.435 803.477 452.435 804.048 453.001C804.619 453.572 804.619 454.493 804.048 455.059Z"
                fill="#FF9A09" />
            <path
                d="M934.508 412.16H934.504C934.08 412.561 932.984 413.493 931.981 413.493C930.974 413.493 929.852 412.557 929.412 412.156C929.412 412.156 929.408 412.156 929.404 412.156L929.4 412.16L929.396 412.164V412.168C929.801 412.607 930.739 413.729 930.739 414.734C930.739 415.736 929.805 416.83 929.404 417.254V417.258H929.408C929.832 416.857 930.928 415.925 931.931 415.925C932.938 415.925 934.06 416.861 934.5 417.262C934.5 417.262 934.504 417.262 934.508 417.262L934.512 417.258L934.515 417.254V417.251C934.11 416.811 933.173 415.69 933.173 414.684C933.173 413.682 934.107 412.588 934.508 412.164V412.16Z"
                fill="#079DAD" />
            <path
                d="M573.941 427.047H573.937C573.512 427.448 572.417 428.38 571.414 428.38C570.407 428.38 569.284 427.444 568.845 427.043C568.845 427.043 568.841 427.043 568.837 427.043L568.833 427.047L568.829 427.051V427.055C569.234 427.494 570.172 428.615 570.172 429.621C570.172 430.623 569.238 431.717 568.837 432.141V432.145H568.841C569.265 431.744 570.361 430.812 571.364 430.812C572.37 430.812 573.493 431.748 573.933 432.149C573.933 432.149 573.937 432.149 573.941 432.149L573.944 432.145L573.948 432.141V432.137C573.543 431.698 572.606 430.577 572.606 429.571C572.606 428.569 573.539 427.475 573.941 427.051V427.047Z"
                fill="#FF9A09" />
            <path
                d="M530.951 368.955C530.947 368.951 530.943 368.955 530.943 368.955C530.129 369.721 528.036 371.51 526.114 371.51C524.191 371.51 522.034 369.719 521.196 368.945C521.196 368.945 521.184 368.941 521.18 368.945L521.172 368.953L521.164 368.961C521.16 368.965 521.164 368.969 521.164 368.969C521.939 369.807 523.731 371.962 523.731 373.883C523.731 375.804 521.944 377.899 521.174 378.709L521.174 378.716L521.178 378.72L521.182 378.724C521.182 378.724 521.186 378.728 521.19 378.724C522.004 377.959 524.097 376.169 526.019 376.169C527.942 376.17 530.099 377.96 530.937 378.734C530.937 378.734 530.949 378.738 530.953 378.734L530.961 378.726L530.969 378.718C530.973 378.714 530.973 378.706 530.973 378.706C530.198 377.869 528.402 375.717 528.406 373.792C528.406 371.871 530.193 369.776 530.963 368.967C530.967 368.963 530.967 368.963 530.963 368.959L530.959 368.955L530.951 368.955C530.959 368.955 530.959 368.955 530.951 368.955Z"
                fill="#7D766A" />
        </g>
        <g opacity="0.4" clip-path="url(#clip5_1_31)">
            <path
                d="M1436.54 432.153C1436.53 432.153 1436.53 432.157 1436.53 432.157C1436.5 433.189 1436.3 435.732 1435.04 436.989C1433.78 438.249 1431.2 438.484 1430.14 438.526C1430.14 438.526 1430.14 438.53 1430.14 438.534V438.542V438.549C1430.14 438.553 1430.14 438.557 1430.14 438.557C1431.2 438.599 1433.79 438.834 1435.04 440.094C1436.3 441.351 1436.5 443.894 1436.53 444.927C1436.53 444.93 1436.54 444.93 1436.54 444.93H1436.54H1436.54H1436.55L1436.55 444.927C1436.58 443.89 1436.78 441.351 1438.04 440.094C1439.3 438.834 1441.89 438.599 1442.94 438.557C1442.94 438.557 1442.95 438.553 1442.95 438.549V438.542V438.534C1442.95 438.53 1442.94 438.526 1442.94 438.526C1441.89 438.484 1439.3 438.249 1438.04 436.989C1436.78 435.732 1436.58 433.189 1436.55 432.157C1436.55 432.153 1436.55 432.153 1436.55 432.153V432.149H1436.54L1436.54 432.153C1436.54 432.153 1436.54 432.149 1436.54 432.153Z"
                fill="#FF9A09" />
            <path
                d="M1064.31 334.051C1064.31 334.047 1064.31 334.047 1064.31 334.047C1063.43 334.024 1061.25 333.85 1060.18 332.775C1059.1 331.7 1058.9 329.492 1058.86 328.594C1058.86 328.59 1058.86 328.586 1058.86 328.586H1058.85H1058.84C1058.84 328.586 1058.83 328.59 1058.83 328.594C1058.79 329.492 1058.59 331.7 1057.52 332.775C1056.44 333.846 1054.27 334.02 1053.39 334.047L1053.38 334.051V334.054V334.058L1053.39 334.062C1054.27 334.085 1056.44 334.259 1057.52 335.334C1058.59 336.409 1058.79 338.617 1058.83 339.515C1058.83 339.518 1058.84 339.522 1058.84 339.522H1058.85H1058.86C1058.86 339.522 1058.86 339.518 1058.86 339.515C1058.9 338.617 1059.1 336.409 1060.18 335.334C1061.25 334.259 1063.43 334.089 1064.31 334.062C1064.31 334.062 1064.31 334.058 1064.31 334.058H1064.32V334.054L1064.31 334.051C1064.32 334.054 1064.31 334.054 1064.31 334.051Z"
                fill="#079DAD" />
            <path
                d="M1338.66 267.442C1338.65 267.442 1338.65 267.442 1338.64 267.442C1337.59 268.433 1334.89 270.742 1332.4 270.742C1329.91 270.742 1327.13 268.426 1326.05 267.429C1326.05 267.429 1326.04 267.429 1326.04 267.429L1326.03 267.435L1326.02 267.442C1326.02 267.448 1326.02 267.455 1326.02 267.455C1327.02 268.538 1329.34 271.313 1329.34 273.8C1329.34 276.28 1327.03 278.983 1326.04 280.033V280.04V280.046H1326.04H1326.05C1326.05 280.046 1326.06 280.046 1326.06 280.046C1327.11 279.055 1329.82 276.746 1332.3 276.746C1334.79 276.746 1337.57 279.062 1338.66 280.059C1338.66 280.066 1338.67 280.066 1338.67 280.059L1338.68 280.053L1338.68 280.046C1338.69 280.04 1338.69 280.033 1338.68 280.033C1337.68 278.95 1335.36 276.175 1335.36 273.688C1335.36 271.208 1337.68 268.505 1338.67 267.455V267.448L1338.66 267.442H1338.66Z"
                fill="#00AD6B" />
            <path
                d="M1422.66 307.523C1422.66 307.519 1422.66 307.523 1422.66 307.523C1422.18 307.014 1421.07 305.708 1421.07 304.513C1421.07 303.315 1422.19 301.978 1422.66 301.458C1422.67 301.454 1422.67 301.454 1422.66 301.45L1422.66 301.446L1422.66 301.442C1422.66 301.442 1422.65 301.438 1422.65 301.442C1422.13 301.92 1420.79 303.037 1419.59 303.037C1418.39 303.037 1417.09 301.924 1416.58 301.446H1416.58H1416.58V301.45C1417.06 301.955 1418.17 303.261 1418.17 304.455C1418.17 305.654 1417.05 306.991 1416.57 307.511C1416.57 307.515 1416.57 307.515 1416.57 307.519L1416.58 307.523L1416.58 307.527C1416.58 307.527 1416.58 307.53 1416.59 307.527C1417.11 307.049 1418.45 305.931 1419.65 305.931C1420.84 305.931 1422.15 307.045 1422.65 307.519H1422.66L1422.66 307.523C1422.66 307.527 1422.66 307.527 1422.66 307.523Z"
                fill="#7D766A" />
            <path
                d="M1469.34 321.462C1469.34 322.625 1468.39 323.569 1467.23 323.569C1466.06 323.569 1465.12 322.625 1465.12 321.462C1465.12 320.298 1466.06 319.354 1467.23 319.354C1468.39 319.354 1469.34 320.298 1469.34 321.462Z"
                fill="#F4362C" />
            <path
                d="M1368.18 326.436C1368.18 327.966 1366.94 329.203 1365.41 329.203C1363.88 329.203 1362.64 327.962 1362.64 326.436C1362.64 324.906 1363.88 323.67 1365.41 323.67C1366.94 323.67 1368.18 324.91 1368.18 326.436Z"
                fill="#7D766A" />
            <path
                d="M1233.52 476.702C1233.52 478.336 1232.19 479.662 1230.56 479.662C1228.92 479.662 1227.6 478.336 1227.6 476.702C1227.6 475.069 1228.92 473.743 1230.56 473.743C1232.19 473.743 1233.52 475.069 1233.52 476.702Z"
                fill="#7D766A" />
            <path
                d="M1397.99 481.253C1397.99 482.132 1397.28 482.845 1396.4 482.845C1395.52 482.845 1394.8 482.132 1394.8 481.253C1394.8 480.375 1395.52 479.662 1396.4 479.662C1397.28 479.662 1397.99 480.375 1397.99 481.253Z"
                fill="#F4362C" />
            <path
                d="M1275.82 297.564C1275.81 297.564 1275.81 297.568 1275.81 297.568C1275.79 298.373 1275.63 300.354 1274.65 301.333C1273.67 302.315 1271.65 302.496 1270.83 302.531C1270.83 302.531 1270.83 302.535 1270.83 302.539V302.547V302.554C1270.83 302.558 1270.83 302.562 1270.83 302.562C1271.65 302.597 1273.67 302.778 1274.65 303.76C1275.63 304.739 1275.79 306.72 1275.81 307.525L1275.82 307.529H1275.82H1275.82C1275.82 307.529 1275.83 307.529 1275.83 307.525C1275.85 306.72 1276.01 304.739 1276.99 303.76C1277.97 302.778 1279.99 302.597 1280.81 302.562C1280.81 302.562 1280.82 302.558 1280.82 302.554V302.547V302.539C1280.82 302.535 1280.81 302.531 1280.81 302.531C1279.99 302.496 1277.97 302.315 1276.99 301.333C1276.01 300.354 1275.85 298.373 1275.83 297.568C1275.83 297.564 1275.83 297.564 1275.82 297.564H1275.82H1275.82C1275.82 297.564 1275.82 297.564 1275.82 297.564Z"
                fill="#FF9A09" />
            <path
                d="M1215.51 282.411C1215.51 283.205 1214.86 283.849 1214.07 283.849C1213.27 283.849 1212.63 283.205 1212.63 282.411C1212.63 281.618 1213.27 280.974 1214.07 280.974C1214.86 280.974 1215.51 281.618 1215.51 282.411Z"
                fill="#7D766A" />
            <path
                d="M1290.11 284.575C1290.11 285.778 1289.14 286.752 1287.93 286.752C1286.73 286.752 1285.75 285.778 1285.75 284.575C1285.75 283.373 1286.73 282.398 1287.93 282.398C1289.14 282.398 1290.11 283.373 1290.11 284.575Z"
                fill="#F4362C" />
            <path
                d="M1477.6 499.536C1477.6 499.536 1477.6 499.536 1477.59 499.536C1476.91 500.183 1475.13 501.694 1473.51 501.694C1471.89 501.694 1470.07 500.179 1469.36 499.532C1469.36 499.532 1469.36 499.528 1469.35 499.532L1469.35 499.54L1469.34 499.547C1469.34 499.551 1469.34 499.555 1469.34 499.555C1469.99 500.264 1471.51 502.079 1471.51 503.705C1471.51 505.324 1470 507.092 1469.34 507.778V507.782L1469.35 507.786H1469.35H1469.36C1469.36 507.786 1469.36 507.786 1469.36 507.786C1470.05 507.139 1471.82 505.628 1473.44 505.628C1475.07 505.628 1476.89 507.142 1477.59 507.794C1477.59 507.794 1477.6 507.798 1477.6 507.794L1477.61 507.786L1477.62 507.778C1477.62 507.774 1477.62 507.771 1477.62 507.771C1476.97 507.062 1475.45 505.247 1475.45 503.621C1475.45 502.002 1476.96 500.233 1477.61 499.547C1477.61 499.547 1477.61 499.544 1477.61 499.54V499.536L1477.6 499.532L1477.6 499.536C1477.6 499.536 1477.6 499.536 1477.6 499.536Z"
                fill="#079DAD" />
            <path
                d="M1379 499.53C1379 500.675 1378.07 501.607 1376.93 501.607C1375.78 501.607 1374.85 500.679 1374.85 499.53C1374.85 498.386 1375.78 497.453 1376.93 497.453C1378.07 497.453 1379 498.382 1379 499.53Z"
                fill="#00AD6B" />
            <path
                d="M1083.11 452.577C1083.11 452.577 1083.11 452.58 1083.11 452.58C1083.08 453.44 1082.91 455.547 1081.87 456.588C1080.83 457.632 1078.68 457.829 1077.81 457.863C1077.81 457.863 1077.8 457.867 1077.8 457.871V457.879V457.886C1077.8 457.89 1077.8 457.894 1077.8 457.894C1078.68 457.929 1080.83 458.125 1081.87 459.17C1082.92 460.214 1083.08 462.322 1083.11 463.181L1083.11 463.185H1083.11H1083.12C1083.12 463.185 1083.12 463.185 1083.12 463.181C1083.14 462.322 1083.31 460.214 1084.36 459.17C1085.4 458.125 1087.55 457.929 1088.42 457.894C1088.42 457.894 1088.43 457.89 1088.43 457.886V457.879V457.871C1088.43 457.867 1088.43 457.863 1088.43 457.863C1087.55 457.829 1085.41 457.632 1084.36 456.588C1083.31 455.544 1083.14 453.436 1083.12 452.58C1083.12 452.577 1083.12 452.577 1083.12 452.577H1083.11H1083.11Z"
                fill="#F4362C" />
            <path
                d="M1266.6 444.716C1266.03 445.282 1265.11 445.282 1264.54 444.716C1263.97 444.149 1263.97 443.228 1264.54 442.658C1265.1 442.092 1266.03 442.092 1266.6 442.658C1267.16 443.224 1267.16 444.145 1266.6 444.716Z"
                fill="#00AD6B" />
            <path
                d="M1182.26 491C1181.7 491.566 1180.77 491.566 1180.2 491C1179.64 490.433 1179.64 489.512 1180.2 488.942C1180.77 488.375 1181.69 488.375 1182.26 488.942C1182.83 489.512 1182.83 490.433 1182.26 491Z"
                fill="#00AD6B" />
            <path
                d="M1164.49 313.19C1163.92 313.756 1163 313.756 1162.43 313.19C1161.86 312.623 1161.86 311.702 1162.43 311.132C1162.99 310.565 1163.91 310.565 1164.49 311.132C1165.05 311.698 1165.05 312.619 1164.49 313.19Z"
                fill="#00AD6B" />
            <path
                d="M1046.06 292.315C1045.49 292.881 1044.57 292.881 1044 292.315C1043.43 291.748 1043.43 290.827 1044 290.257C1044.56 289.69 1045.49 289.69 1046.06 290.257C1046.63 290.827 1046.63 291.748 1046.06 292.315Z"
                fill="#FF9A09" />
            <path
                d="M1077.96 357.941C1077.39 358.508 1076.47 358.508 1075.9 357.941C1075.33 357.375 1075.33 356.454 1075.9 355.884C1076.46 355.317 1077.39 355.317 1077.96 355.884C1078.52 356.454 1078.52 357.375 1077.96 357.941Z"
                fill="#F4362C" />
            <path
                d="M1078.83 267.285C1078.26 267.852 1077.34 267.852 1076.77 267.285C1076.2 266.719 1076.2 265.798 1076.77 265.228C1077.34 264.661 1078.26 264.661 1078.83 265.228C1079.4 265.798 1079.4 266.719 1078.83 267.285Z"
                fill="#079DAD" />
            <path
                d="M1153.7 450.615C1153.69 450.615 1153.69 450.615 1153.69 450.615C1152.61 451.631 1149.84 453.997 1147.3 453.997C1144.75 453.997 1141.91 451.625 1140.8 450.604C1140.8 450.604 1140.78 450.598 1140.78 450.604L1140.77 450.615L1140.76 450.627C1140.75 450.633 1140.75 450.639 1140.75 450.639C1141.78 451.748 1144.15 454.595 1144.15 457.143C1144.15 459.679 1141.78 462.455 1140.77 463.529C1140.77 463.529 1140.77 463.535 1140.77 463.541L1140.77 463.547H1140.78H1140.78C1140.78 463.547 1140.79 463.547 1140.8 463.547C1141.87 462.531 1144.64 460.166 1147.19 460.166C1149.73 460.166 1152.58 462.537 1153.69 463.559C1153.69 463.559 1153.71 463.564 1153.71 463.559L1153.72 463.547L1153.74 463.535C1153.74 463.529 1153.74 463.523 1153.74 463.523C1152.72 462.414 1150.34 459.567 1150.34 457.02C1150.34 454.478 1152.71 451.707 1153.73 450.633C1153.73 450.633 1153.73 450.627 1153.73 450.621V450.615L1153.72 450.61L1153.7 450.615C1153.71 450.615 1153.7 450.615 1153.7 450.615Z"
                fill="#079DAD" />
            <path
                d="M1149.47 282.411C1149.46 282.411 1149.46 282.418 1149.46 282.418C1149.42 283.825 1149.15 287.283 1147.44 288.993C1145.72 290.709 1142.2 291.025 1140.77 291.085C1140.77 291.085 1140.75 291.092 1140.75 291.099V291.112V291.126C1140.75 291.133 1140.76 291.139 1140.76 291.139C1142.2 291.2 1145.72 291.516 1147.44 293.232C1149.15 294.941 1149.42 298.4 1149.46 299.807L1149.47 299.813H1149.48H1149.48C1149.48 299.813 1149.49 299.813 1149.49 299.807C1149.53 298.4 1149.81 294.941 1151.52 293.232C1153.24 291.516 1156.75 291.2 1158.19 291.139C1158.19 291.139 1158.2 291.133 1158.2 291.126V291.112V291.099C1158.2 291.092 1158.2 291.085 1158.2 291.085C1156.75 291.025 1153.24 290.709 1151.52 288.993C1149.81 287.283 1149.53 283.825 1149.49 282.418C1149.49 282.411 1149.49 282.411 1149.48 282.411H1149.48H1149.47C1149.48 282.411 1149.47 282.411 1149.47 282.411Z"
                fill="#FF9A09" />
            <path
                d="M1459.57 263.99H1459.57C1459.19 264.353 1458.2 265.196 1457.29 265.196C1456.38 265.196 1455.36 264.349 1454.97 263.987C1454.97 263.987 1454.97 263.987 1454.96 263.987L1454.96 263.99L1454.96 263.994V263.998C1455.32 264.395 1456.17 265.408 1456.17 266.318C1456.17 267.223 1455.32 268.21 1454.96 268.595V268.599H1454.96C1455.35 268.237 1456.34 267.393 1457.24 267.393C1458.15 267.393 1459.17 268.241 1459.56 268.603C1459.56 268.603 1459.57 268.603 1459.57 268.603L1459.57 268.599L1459.58 268.595V268.591C1459.21 268.194 1458.37 267.181 1458.37 266.272C1458.37 265.366 1459.21 264.376 1459.57 263.994V263.99C1459.58 263.994 1459.58 263.994 1459.58 263.994L1459.57 263.99C1459.58 263.99 1459.58 263.99 1459.57 263.99Z"
                fill="#FF9A09" />
            <path
                d="M1042.54 472.779C1042.54 473.573 1041.9 474.216 1041.1 474.216C1040.31 474.216 1039.66 473.573 1039.66 472.779C1039.66 471.985 1040.31 471.342 1041.1 471.342C1041.9 471.342 1042.54 471.985 1042.54 472.779Z"
                fill="#00AD6B" />
            <path
                d="M1327.05 455.059C1326.48 455.626 1325.56 455.626 1324.99 455.059C1324.42 454.493 1324.42 453.572 1324.99 453.001C1325.55 452.435 1326.48 452.435 1327.05 453.001C1327.62 453.572 1327.62 454.493 1327.05 455.059Z"
                fill="#FF9A09" />
            <path
                d="M1457.51 412.16H1457.5C1457.08 412.561 1455.98 413.493 1454.98 413.493C1453.97 413.493 1452.85 412.557 1452.41 412.156C1452.41 412.156 1452.41 412.156 1452.4 412.156L1452.4 412.16L1452.4 412.164V412.168C1452.8 412.607 1453.74 413.729 1453.74 414.734C1453.74 415.736 1452.81 416.83 1452.4 417.254V417.258H1452.41C1452.83 416.857 1453.93 415.925 1454.93 415.925C1455.94 415.925 1457.06 416.861 1457.5 417.262C1457.5 417.262 1457.5 417.262 1457.51 417.262L1457.51 417.258L1457.52 417.254V417.251C1457.11 416.811 1456.17 415.69 1456.17 414.684C1456.17 413.682 1457.11 412.588 1457.51 412.164V412.16Z"
                fill="#079DAD" />
            <path
                d="M1096.94 427.047H1096.94C1096.51 427.448 1095.42 428.38 1094.41 428.38C1093.41 428.38 1092.28 427.444 1091.84 427.043C1091.84 427.043 1091.84 427.043 1091.84 427.043L1091.83 427.047L1091.83 427.051V427.055C1092.23 427.494 1093.17 428.615 1093.17 429.621C1093.17 430.623 1092.24 431.717 1091.84 432.141V432.145H1091.84C1092.27 431.744 1093.36 430.812 1094.36 430.812C1095.37 430.812 1096.49 431.748 1096.93 432.149C1096.93 432.149 1096.94 432.149 1096.94 432.149L1096.94 432.145L1096.95 432.141V432.137C1096.54 431.698 1095.61 430.577 1095.61 429.571C1095.61 428.569 1096.54 427.475 1096.94 427.051V427.047Z"
                fill="#FF9A09" />
            <path
                d="M1053.95 368.955C1053.95 368.951 1053.94 368.955 1053.94 368.955C1053.13 369.721 1051.04 371.51 1049.11 371.51C1047.19 371.51 1045.03 369.719 1044.2 368.945C1044.2 368.945 1044.18 368.941 1044.18 368.945L1044.17 368.953L1044.16 368.961C1044.16 368.965 1044.16 368.969 1044.16 368.969C1044.94 369.807 1046.73 371.962 1046.73 373.883C1046.73 375.804 1044.94 377.899 1044.17 378.709L1044.17 378.716L1044.18 378.72L1044.18 378.724C1044.18 378.724 1044.19 378.728 1044.19 378.724C1045 377.959 1047.1 376.169 1049.02 376.169C1050.94 376.17 1053.1 377.96 1053.94 378.734C1053.94 378.734 1053.95 378.738 1053.95 378.734L1053.96 378.726L1053.97 378.718C1053.97 378.714 1053.97 378.706 1053.97 378.706C1053.2 377.869 1051.4 375.717 1051.41 373.792C1051.41 371.871 1053.19 369.776 1053.96 368.967C1053.97 368.963 1053.97 368.963 1053.96 368.959L1053.96 368.955L1053.95 368.955C1053.96 368.955 1053.96 368.955 1053.95 368.955Z"
                fill="#7D766A" />
        </g>
    </g>
    <defs>
        <clipPath id="clip0_1_31">
            <rect width="683" height="316" fill="white" transform="translate(0 -36)" />
        </clipPath>
        <clipPath id="clip1_1_31">
            <rect width="683" height="316" fill="white" transform="translate(501 -36)" />
        </clipPath>
        <clipPath id="clip2_1_31">
            <rect width="683" height="316" fill="white" transform="translate(1024 -36)" />
        </clipPath>
        <clipPath id="clip3_1_31">
            <rect width="683" height="316" fill="white" transform="translate(0 264)" />
        </clipPath>
        <clipPath id="clip4_1_31">
            <rect width="683" height="316" fill="white" transform="translate(501 264)" />
        </clipPath>
        <clipPath id="clip5_1_31">
            <rect width="683" height="316" fill="white" transform="translate(1024 264)" />
        </clipPath>
    </defs>
</svg>