<svg width="331" height="67" viewBox="0 0 331 67" fill="none" xmlns="http://www.w3.org/2000/svg">
    <path
        d="M81.9148 52H75.392L90.0483 11.2727H97.1477L111.804 52H105.281L93.767 18.6705H93.4489L81.9148 52ZM83.0085 36.0511H104.168V41.2216H83.0085V36.0511ZM139.879 28.9119L134.489 29.8665C134.264 29.1771 133.906 28.5208 133.415 27.8977C132.938 27.2746 132.289 26.7642 131.467 26.3665C130.645 25.9687 129.617 25.7699 128.384 25.7699C126.701 25.7699 125.295 26.1477 124.168 26.9034C123.041 27.6458 122.478 28.607 122.478 29.7869C122.478 30.8078 122.856 31.6297 123.612 32.2528C124.367 32.8759 125.587 33.3864 127.271 33.7841L132.123 34.8977C134.933 35.5473 137.028 36.5483 138.407 37.9006C139.786 39.2528 140.475 41.0095 140.475 43.1705C140.475 45 139.945 46.6307 138.884 48.0625C137.837 49.4811 136.372 50.5947 134.489 51.4034C132.62 52.2121 130.452 52.6165 127.987 52.6165C124.566 52.6165 121.775 51.8873 119.614 50.429C117.453 48.9574 116.128 46.8693 115.637 44.1648L121.384 43.2898C121.742 44.7879 122.478 45.9214 123.592 46.6903C124.705 47.446 126.157 47.8239 127.947 47.8239C129.896 47.8239 131.453 47.4195 132.62 46.6108C133.787 45.7888 134.37 44.7879 134.37 43.608C134.37 42.6534 134.012 41.8513 133.296 41.2017C132.594 40.5521 131.513 40.0616 130.055 39.7301L124.884 38.5966C122.034 37.947 119.926 36.9129 118.56 35.4943C117.208 34.0758 116.532 32.2794 116.532 30.1051C116.532 28.3021 117.036 26.7244 118.043 25.3722C119.051 24.0199 120.443 22.9659 122.219 22.2102C123.996 21.4413 126.031 21.0568 128.325 21.0568C131.626 21.0568 134.224 21.7727 136.12 23.2045C138.016 24.6231 139.269 26.5256 139.879 28.9119ZM152.482 41.6392L152.442 34.3807H153.476L165.646 21.4545H172.766L158.885 36.1705H157.95L152.482 41.6392ZM147.013 52V11.2727H152.959V52H147.013ZM166.303 52L155.365 37.483L159.462 33.3267L173.601 52H166.303ZM196.923 52H190.4L205.056 11.2727H212.156L226.812 52H220.289L208.775 18.6705H208.457L196.923 52ZM198.016 36.0511H219.175V41.2216H198.016V36.0511ZM254.886 28.9119L249.497 29.8665C249.272 29.1771 248.914 28.5208 248.423 27.8977C247.946 27.2746 247.296 26.7642 246.474 26.3665C245.652 25.9687 244.625 25.7699 243.392 25.7699C241.708 25.7699 240.303 26.1477 239.176 26.9034C238.049 27.6458 237.486 28.607 237.486 29.7869C237.486 30.8078 237.864 31.6297 238.619 32.2528C239.375 32.8759 240.595 33.3864 242.278 33.7841L247.131 34.8977C249.941 35.5473 252.036 36.5483 253.415 37.9006C254.794 39.2528 255.483 41.0095 255.483 43.1705C255.483 45 254.953 46.6307 253.892 48.0625C252.845 49.4811 251.38 50.5947 249.497 51.4034C247.628 52.2121 245.46 52.6165 242.994 52.6165C239.574 52.6165 236.783 51.8873 234.622 50.429C232.461 48.9574 231.135 46.8693 230.645 44.1648L236.392 43.2898C236.75 44.7879 237.486 45.9214 238.599 46.6903C239.713 47.446 241.165 47.8239 242.955 47.8239C244.903 47.8239 246.461 47.4195 247.628 46.6108C248.795 45.7888 249.378 44.7879 249.378 43.608C249.378 42.6534 249.02 41.8513 248.304 41.2017C247.601 40.5521 246.521 40.0616 245.062 39.7301L239.892 38.5966C237.042 37.947 234.934 36.9129 233.568 35.4943C232.216 34.0758 231.54 32.2794 231.54 30.1051C231.54 28.3021 232.044 26.7244 233.051 25.3722C234.059 24.0199 235.451 22.9659 237.227 22.2102C239.004 21.4413 241.039 21.0568 243.332 21.0568C246.634 21.0568 249.232 21.7727 251.128 23.2045C253.024 24.6231 254.277 26.5256 254.886 28.9119ZM276.279 21.4545V26.2273H259.594V21.4545H276.279ZM264.069 14.1364H270.015V43.0312C270.015 44.1847 270.187 45.053 270.532 45.6364C270.877 46.2064 271.321 46.5975 271.864 46.8097C272.421 47.0085 273.024 47.108 273.674 47.108C274.151 47.108 274.569 47.0748 274.927 47.0085C275.285 46.9422 275.563 46.8892 275.762 46.8494L276.836 51.7614C276.491 51.8939 276.001 52.0265 275.364 52.1591C274.728 52.3049 273.933 52.3845 272.978 52.3977C271.414 52.4242 269.955 52.1458 268.603 51.5625C267.251 50.9792 266.157 50.0777 265.322 48.858C264.487 47.6383 264.069 46.107 264.069 44.2642V14.1364ZM282.857 52V21.4545H288.604V26.3068H288.922C289.479 24.6629 290.46 23.3703 291.865 22.429C293.284 21.4744 294.888 20.9972 296.678 20.9972C297.049 20.9972 297.486 21.0104 297.99 21.0369C298.507 21.0634 298.911 21.0966 299.203 21.1364V26.8239C298.964 26.7576 298.54 26.6847 297.93 26.6051C297.321 26.5123 296.711 26.4659 296.101 26.4659C294.696 26.4659 293.443 26.7642 292.342 27.3608C291.255 27.9441 290.393 28.7595 289.757 29.8068C289.121 30.8409 288.803 32.0208 288.803 33.3466V52H282.857ZM316.121 52.6165C313.258 52.6165 310.759 51.9602 308.624 50.6477C306.49 49.3352 304.833 47.4991 303.653 45.1392C302.473 42.7794 301.883 40.0218 301.883 36.8665C301.883 33.6979 302.473 30.9271 303.653 28.554C304.833 26.1809 306.49 24.3381 308.624 23.0256C310.759 21.7131 313.258 21.0568 316.121 21.0568C318.985 21.0568 321.484 21.7131 323.619 23.0256C325.753 24.3381 327.41 26.1809 328.59 28.554C329.77 30.9271 330.36 33.6979 330.36 36.8665C330.36 40.0218 329.77 42.7794 328.59 45.1392C327.41 47.4991 325.753 49.3352 323.619 50.6477C321.484 51.9602 318.985 52.6165 316.121 52.6165ZM316.141 47.625C317.997 47.625 319.535 47.1345 320.755 46.1534C321.975 45.1723 322.876 43.8665 323.46 42.2358C324.056 40.6051 324.354 38.8087 324.354 36.8466C324.354 34.8977 324.056 33.108 323.46 31.4773C322.876 29.8333 321.975 28.5142 320.755 27.5199C319.535 26.5256 317.997 26.0284 316.141 26.0284C314.272 26.0284 312.721 26.5256 311.488 27.5199C310.268 28.5142 309.36 29.8333 308.763 31.4773C308.18 33.108 307.888 34.8977 307.888 36.8466C307.888 38.8087 308.18 40.6051 308.763 42.2358C309.36 43.8665 310.268 45.1723 311.488 46.1534C312.721 47.1345 314.272 47.625 316.141 47.625Z"
        fill="#16132E" />
    <path
        d="M48.3592 33.2738C42.6808 38.6514 41.6161 49.5186 41.4978 54C41.3795 49.5186 40.3148 38.6514 34.6404 33.2738C28.9644 28.0082 17.6117 27.112 13 26.9999C17.6117 26.8879 28.9644 25.9916 34.6404 20.726C40.3148 15.3484 41.3795 4.48116 41.4978 -1.03002e-06C41.6161 4.48116 42.6808 15.3484 48.3592 20.726C54.0336 25.9916 65.3863 26.8879 70 26.9999C65.3863 27.112 54.0336 28.0082 48.3592 33.2738Z"
        fill="#FFA11A" />
    <path
        d="M19.8508 55.4854C16.6629 58.473 16.0652 64.5104 15.9988 67C15.9324 64.5104 15.3346 58.473 12.149 55.4854C8.9625 52.5601 2.58902 52.0622 0 52C2.58902 51.9377 8.9625 51.4398 12.149 48.5145C15.3346 45.5269 15.9324 39.4895 15.9988 37C16.0652 39.4895 16.6629 45.5269 19.8508 48.5145C23.0364 51.4398 29.4099 51.9377 32 52C29.4099 52.0622 23.0364 52.5601 19.8508 55.4854Z"
        fill="#2BB5BE" />
    <circle cx="4" cy="6" r="4" fill="#FF281A" />
</svg>
    